<svg width="146" height="18" viewBox="0 0 146 18" fill="none" xmlns="http://www.w3.org/2000/svg">
<g clip-path="url(#clip0_332_5273)">
<path d="M16.3798 0.00121482C16.3002 0.00287652 16.2202 0.00642366 16.1399 0.0115047L12.2046 13.788C11.9921 14.5341 11.1947 15.1586 10.4389 15.1586H8.9285L11.3065 6.84371C11.3416 6.71749 11.2059 6.62476 11.1052 6.71264C7.60599 9.72292 3.38307 14.1185 0.741891 17.4436C0.674783 17.5299 0.709871 17.6577 0.824913 17.6577H11.1195C15.4608 17.6577 17.8367 16.314 18.6979 13.0992C19.3994 10.482 18.0287 8.69573 15.8397 8.23556C15.7997 8.22757 15.7646 8.15382 15.8397 8.13944C17.6915 7.82307 19.5592 7.07712 20.2255 4.37522C20.9236 1.5426 18.8476 -0.0501884 16.3798 0.00121482ZM89.3324 1.97351C85.691 1.97351 83.7257 3.40197 83.0195 6.14062C82.8246 6.89159 82.8966 8.1171 83.3456 8.88405C84.3458 10.5969 86.995 10.811 88.4602 11.8288C89.0977 12.2714 89.1167 12.8691 88.9473 13.5258C88.6182 14.8041 87.9758 15.4129 86.6992 15.4129C85.4704 15.4129 84.7341 14.6986 85.4356 12.4601H81.5353C79.9726 16.1974 82.0097 17.8895 86.1608 17.8895C89.9492 17.8895 92.0519 16.9897 92.9531 13.5049C93.2615 12.3145 93.0632 11.0301 92.3314 10.2344C90.9142 8.6941 88.1902 8.40629 87.2331 7.51312C86.7458 7.05934 86.7505 6.42337 86.8911 5.87692C87.1515 4.87349 87.8257 4.32717 88.9186 4.32717C90.6315 4.32717 90.6745 5.38011 90.2543 6.6312H93.9277C94.7921 4.02037 93.6593 1.97351 89.3324 1.97351ZM65.0841 2.0999C59.7138 2.0999 58.2534 3.23252 56.523 9.92575C54.9108 16.1588 55.4414 17.8128 61.2462 17.8128C63.9992 17.8128 65.1528 17.6099 66.8289 17.3047L68.7703 10.0184H64.6303V10.0168L63.2513 15.0852C62.9605 15.1124 62.5964 15.1554 62.0308 15.1554C59.3241 15.1554 59.626 14.3405 60.7669 9.92571C61.954 5.3352 62.6443 4.49814 64.3348 4.49814C65.9598 4.49814 65.9741 5.59413 65.5603 6.97943H69.6859C70.3554 4.39258 69.9079 2.0999 65.0841 2.0999ZM113.691 2.10302C109.045 2.10302 107.03 2.92903 105.203 9.98816C103.623 16.1014 104.89 17.8717 109.613 17.8717C114.421 17.8717 116.32 16.8827 118.101 9.98816C119.392 4.9966 119.13 2.10302 113.691 2.10302ZM127.525 2.28527C124.342 2.28527 122.864 2.35389 121.995 2.31554L118.144 17.1977C118.079 17.4517 118.227 17.6577 118.475 17.6577H122.167L125.512 4.72506C125.852 4.72346 126.371 4.69478 126.895 4.69478C128.688 4.69478 128.925 5.33222 128.452 7.16172L125.855 17.1977C125.79 17.4517 125.938 17.6577 126.188 17.6577H129.878L132.593 7.16172C133.533 3.5251 131.937 2.28527 127.525 2.28527ZM23.4052 2.31398L19.5561 17.1958C19.4906 17.4498 19.6392 17.6561 19.8885 17.6561H23.5794L26.9235 4.72349C27.2814 4.7219 27.6217 4.70758 28.4717 4.70758C29.8938 4.70758 30.4213 5.58636 30.1145 6.77194C29.7102 8.3314 28.5007 9.2086 27.0627 9.2086H26.5194L28.0564 16.6334C28.2385 17.3588 28.603 17.6561 29.4338 17.6561H32.73L31.2985 11.5061C31.1611 11.0475 31.0108 10.7151 30.7935 10.4419C30.7664 10.4068 30.7583 10.359 30.8095 10.343C32.5734 9.79813 33.7271 8.68455 34.216 6.79753C34.8616 4.30175 33.2878 2.31398 29.3124 2.31398L23.4052 2.31398ZM44.7185 2.31398L40.871 17.1958C40.8055 17.4498 40.9541 17.6561 41.2033 17.6561H46.1229C52.3032 17.6561 53.3451 16.4737 55.0403 9.9195C56.5119 4.2233 55.6042 2.31398 50.2419 2.31398H44.7185ZM95.5545 2.31398L94.917 4.80651H99.0185C99.0601 4.80651 99.06 4.85764 99.0216 4.8864C98.3665 5.38012 97.9669 6.08317 97.7768 6.81657L95.0861 17.1977C95.0206 17.4517 95.1708 17.6577 95.4185 17.6577H99.3812L102.711 4.80807H104.742C105.881 4.80807 106.574 4.33048 106.96 3.33664L107.348 2.31554H95.5545V2.31398ZM37.6975 2.31558L33.8484 17.1977C33.7829 17.4518 33.9315 17.6577 34.1808 17.6577H38.0811L41.9317 2.77557C41.9972 2.52152 41.8486 2.31558 41.5994 2.31558H37.6975ZM76.1555 2.31558C73.4919 2.31558 72.6914 2.79181 71.656 6.79913L69.7499 14.1282C69.1635 16.5888 69.895 17.6577 71.905 17.6577H77.4465C78.5378 17.6577 79.2408 17.0778 79.578 16.1878L80.0317 15.0166H74.4697C73.9312 15.0166 73.7442 14.8521 73.8449 14.4174L74.7811 10.7522H80.3001L80.9218 8.34732H75.4012L76.0291 5.9041C76.1937 5.26498 76.6474 4.72197 77.5358 4.72197H81.9553L82.577 2.31558H76.1555ZM139.286 2.31558C136.621 2.31558 135.821 2.79181 134.785 6.79913L132.879 14.1282C132.293 16.5888 133.024 17.6577 135.033 17.6577H140.576C141.667 17.6577 142.369 17.0778 142.707 16.1878L143.163 15.0166H137.599C137.062 15.0166 136.874 14.8521 136.974 14.4174L137.911 10.7522H143.43L144.053 8.34732H138.532L139.159 5.9041C139.325 5.26498 139.779 4.72197 140.667 4.72197H145.085L145.708 2.31558H139.286ZM113.073 4.49821C114.843 4.49821 115.038 5.45208 113.896 9.86524C112.766 14.2384 111.649 15.2931 110.28 15.2931C108.508 15.2931 108.246 14.6475 109.481 9.86524C110.51 5.88668 111.492 4.49821 113.073 4.49821ZM49.5582 4.70917C51.9533 4.70917 51.9502 5.50155 50.8061 9.9211C49.6525 14.3934 48.9799 15.0372 46.703 15.0372H45.5702L48.2368 4.72509C48.5804 4.72349 48.7081 4.70917 49.5582 4.70917Z" fill="#231815"/>
<path d="M3.12089 10.1017L5.524 1.67165C5.75568 0.80404 6.71437 0.0131226 7.68264 0.0131226H15.0326C15.1556 0.0131226 15.1956 0.174502 15.0997 0.240012C11.2777 2.85563 6.66963 6.73512 3.32701 10.2104C3.24232 10.3014 3.08734 10.2279 3.12089 10.1017Z" fill="#E60012"/>
</g>
<defs>
<clipPath id="clip0_332_5273">
<rect width="145" height="17.8895" fill="white" transform="translate(0.708008)"/>
</clipPath>
</defs>
</svg>
