<svg width="157" height="21" viewBox="0 0 157 21" fill="none" xmlns="http://www.w3.org/2000/svg">
<path d="M50.2262 3.47455H45.4744V3.52564C45.6277 3.78112 45.7299 4.13878 45.7299 4.49645C45.7299 5.05849 45.3722 6.08039 45.27 6.54024L42.2554 15.2264C41.8467 16.3505 41.7956 16.657 41.0803 17.73V17.7811H45.0146V17.73C44.8102 17.3724 44.708 17.0658 44.708 16.7081C44.708 16.1461 44.9635 15.3797 45.1168 14.9709L45.3211 14.3578H49.6131C49.6131 14.3578 49.8686 15.1242 50.073 15.584C50.2262 15.9928 50.2773 16.4016 50.2773 16.657C50.2773 16.9636 50.2262 17.2191 50.073 17.73V17.7811H55.7956V17.73C55.1824 16.9636 54.8759 16.095 54.3649 14.6643L50.2262 3.47455ZM46.0876 12.0074L47.416 8.022L48.7956 12.0074H46.0876ZM38.6277 14.6132C38.6277 15.8906 38.7299 17.0658 39.1387 17.73V17.7811H33.5182V17.73C34.0803 16.7592 33.9781 15.7884 33.9781 14.6643V12.314V11.7519L33.2116 10.2702L30.5036 5.21178C30.146 4.49645 29.8394 4.03659 29.2773 3.52564V3.47455H34.1825V3.52564L37.0949 9.45265C37.0949 9.45265 37.7591 8.12419 37.9124 7.81762C38.2189 7.20448 38.5766 6.48915 38.7299 6.18258C38.9854 5.72272 39.2408 5.05849 39.2408 4.54754C39.2408 4.03659 39.0876 3.78112 38.9343 3.57674V3.47455H42.8175V3.52564L38.8832 11.2921L38.5766 11.8541L38.6277 14.6132ZM66.8832 17.7811H56.8175V17.73C57.2262 16.8103 57.2773 16.0439 57.2773 14.6643V6.59134C57.2773 4.90521 57.1241 4.24097 56.8175 3.57674V3.52564H62.2846V3.57674C61.927 4.54754 61.8759 5.10959 61.8759 6.64243V14.8687C62.489 14.9709 63.2043 15.0731 63.9708 15.0731C65.6058 15.0731 66.4744 14.9198 67.0876 14.6643H67.2409L66.8832 17.7811ZM22.635 3.11689C18.1897 3.11689 15.1241 5.87601 15.1241 9.75922C15.1241 15.4308 21.1533 16.2483 23.2481 14.4089L22.8905 13.6935C21.0511 14.0512 19.416 12.6716 19.416 9.55484C19.416 7.05119 20.7445 5.46725 22.5839 5.46725C24.7299 5.46725 26.0584 7.61324 26.0584 10.73C26.0584 14.2556 24.0146 16.9125 20.2335 16.9125C15.8905 16.9125 12.6204 13.4892 10.5766 10.0658C12.8248 9.19718 14.1533 7.51105 14.1533 5.21178C14.1533 2.24827 11.9051 0.153381 7.86858 0.153381H0.204346V0.204476C0.510915 0.86871 0.6642 2.09499 0.6642 3.78112V14.6643C0.6642 16.0439 0.613105 16.8103 0.204346 17.73V17.7811H5.87588V17.73C5.51822 16.8614 5.41603 15.6862 5.41603 14.6643C5.41603 12.9782 5.41603 11.6497 5.41603 11.6497C5.46712 11.6497 6.02916 11.6497 6.13135 11.6497C10.0657 17.4235 14.562 19.8249 19.3649 19.8249C26.3138 19.8249 30.4014 15.4308 30.4014 10.5767C30.4014 6.43805 27.2846 3.11689 22.635 3.11689ZM5.46712 9.35046V2.86141H7.05106C8.89048 2.86141 9.6569 3.9344 9.6569 5.67163C9.6569 7.76652 8.43062 9.40156 6.43792 9.40156C6.13135 9.35046 5.56931 9.35046 5.46712 9.35046ZM100.759 3.52564C100.453 4.18988 100.299 4.90521 100.299 6.54024V15.4308C100.35 16.3505 100.401 16.9636 100.759 17.6789V17.73H100.299H99.3795H97.4379C96.7226 17.4235 95.9562 16.5548 94.9343 15.4818C94.1168 14.6132 90.2846 10.168 90.2846 10.168H90.2336C90.2336 10.168 90.2336 14.3578 90.2336 14.4089C89.1095 14.511 87.781 14.8176 86.7591 15.0731V14.1534V6.48915C86.7591 4.80302 86.6058 4.13878 86.2992 3.47455V3.42345H89.1606H90.3357L96.8248 11.2921V6.59134C96.8248 4.90521 96.6715 4.24097 96.3649 3.57674V3.52564H99.3795H100.759ZM94.0657 17.7811C88.3941 17.8322 87.0657 20.8979 79.8613 20.8979C76.3868 20.8979 73.3211 19.9782 73.3211 19.9782V19.9271C73.7299 19.0074 73.781 18.2921 73.781 16.9125V3.78112C73.781 2.09499 73.6277 0.86871 73.3211 0.204476V0.153381H84.9197L85.2773 3.37236C84.4087 3.0147 83.3357 2.91251 81.8029 2.91251H78.7372V8.48185H80.219C82.5182 8.48185 83.8467 8.32856 84.2044 8.22637H84.3065V11.5986H84.2554C83.7956 11.4454 82.2117 11.2921 80.3211 11.2921H78.7883V16.8614C78.7883 16.8614 80.5766 17.2702 82.2117 17.2702C86.5036 17.2702 88.343 15.7373 92.5839 15.7373C92.7372 15.7373 92.8394 15.7373 92.9416 15.7373C93.7591 16.7081 94.4744 17.4746 94.781 17.7811C94.4744 17.7811 94.4744 17.7811 94.0657 17.7811ZM118.745 6.59134V14.7154C118.745 16.095 118.796 16.8614 119.204 17.7811V17.8322H113.686V17.7811C114.095 16.8614 114.146 16.095 114.146 14.7154V6.59134C114.146 4.90521 113.993 4.24097 113.686 3.57674V3.52564H119.204V3.57674C118.898 4.24097 118.745 4.90521 118.745 6.59134ZM107.657 9.70813H108.066C110.109 9.70813 110.774 9.55484 111.08 9.50375H111.182V12.4673H111.08C110.672 12.314 109.803 12.1607 108.117 12.1607H107.657V13.8979V14.6132C107.657 16.0439 107.708 17.0147 108.168 17.73V17.7811H102.599V17.73C103.007 16.8103 103.058 16.0439 103.058 14.6643V6.59134C103.058 4.90521 102.905 4.24097 102.599 3.57674V3.52564H112.102L112.46 6.43805H112.409C111.745 6.13148 110.876 5.9782 109.496 5.9782H107.657V8.32856V9.70813ZM131.263 14.8176L130.905 17.7811H124.314H121.095V17.73C121.504 16.8103 121.555 16.0439 121.555 14.6643V6.59134C121.555 4.90521 121.401 4.24097 121.095 3.57674V3.52564H130.599L130.956 6.43805H130.905C130.241 6.13148 129.372 5.9782 127.993 5.9782H126.153V9.24827H126.511C128.555 9.24827 129.219 9.09499 129.526 9.04389H129.628V12.0074H129.526C129.117 11.8541 128.248 11.7008 126.562 11.7008H126.102V15.0731C126.766 15.1753 127.226 15.2264 127.993 15.2264C129.73 15.2264 130.343 15.1242 131.058 14.8176H131.263ZM156.555 11.0877C156.555 15.9928 152.978 19.8249 146.949 19.8249C142.299 19.8249 140.817 17.7811 135.044 17.7811H132.642V17.73C133.051 16.8103 133.102 16.0439 133.102 14.6643V6.54024C133.102 4.85411 132.949 4.18988 132.642 3.52564V3.47455H138.161V3.52564C137.854 4.18988 137.701 5.26287 137.701 6.59134V15.2775C141.124 15.2775 142.657 16.2994 145.672 16.2994C149.861 16.2994 151.905 14.0001 151.905 10.73C151.905 7.91981 150.474 5.82491 147.971 5.82491C147.511 5.82491 146.847 5.82491 146.336 5.82491V14.6643C144.803 14.7154 143.015 14.511 141.737 14.0512V6.54024C141.737 4.85411 141.584 4.18988 141.277 3.52564V3.47455H147.766C153.131 3.47455 156.555 6.79572 156.555 11.0877Z" fill="#DA291C"/>
</svg>
