<svg width="115" height="31" viewBox="0 0 115 31" fill="none" xmlns="http://www.w3.org/2000/svg">
<path d="M84.4006 29.13V27.469H86.9658V26.4698H84.4006V24.9251H87.5703V23.9258H83.3063V30.1309H87.5703V29.1317L84.4006 29.13ZM75.3108 24.9447C75.4583 24.9365 75.6041 24.9578 75.7417 25.0086C75.8793 25.0594 76.0054 25.1397 76.1135 25.2429C76.22 25.3461 76.3052 25.4689 76.3641 25.6065C76.4231 25.7441 76.4526 25.8915 76.4526 26.0422C76.4526 26.1913 76.4231 26.3404 76.3641 26.478C76.3052 26.6156 76.2216 26.7401 76.1135 26.8416C76.007 26.9448 75.8809 27.0235 75.7417 27.0759C75.6041 27.1267 75.4566 27.1496 75.3108 27.1398H73.6728V24.9431H75.3108V24.9447ZM72.5785 30.1309H73.6728V28.1488H75.301C76.6672 28.1488 77.5517 27.3183 77.5517 26.0242C77.5517 24.7564 76.659 23.9258 75.301 23.9258H72.5769L72.5785 30.1309ZM61.3101 23.9258V27.7295C61.3101 29.2562 62.3962 30.221 63.9376 30.221C65.4791 30.221 66.5651 29.2562 66.5651 27.7393V23.9275H65.4791V27.7393C65.4791 28.578 64.9008 29.1857 63.9376 29.1857C62.9925 29.1857 62.406 28.578 62.406 27.7311V23.9275L61.3101 23.9258ZM52.4661 29.1841C51.919 29.1628 51.403 28.9253 51.0246 28.5239C50.6462 28.1226 50.4333 27.587 50.4333 27.0284C50.4333 26.4714 50.6446 25.9358 51.0246 25.5328C51.403 25.1315 51.9206 24.894 52.4661 24.8727C53.6128 24.8727 54.4892 25.7572 54.4892 27.0333C54.5023 27.3118 54.4613 27.5902 54.3647 27.8523C54.2697 28.1144 54.1222 28.3519 53.9322 28.5534C53.7422 28.7549 53.5145 28.9154 53.2622 29.0236C53.0116 29.1317 52.7397 29.1857 52.4661 29.1841ZM52.4661 23.8358C51.8469 23.839 51.2441 24.0274 50.7314 24.3796C50.2187 24.7318 49.819 25.2314 49.5847 25.8146C49.3489 26.3977 49.2899 27.0382 49.4111 27.6574C49.5323 28.275 49.8321 28.8434 50.2695 29.2889C50.7068 29.7345 51.2654 30.0375 51.8715 30.1604C52.4776 30.2832 53.1066 30.2194 53.6783 29.9786C54.25 29.7378 54.7382 29.3282 55.0821 28.8057C55.4261 28.2815 55.6096 27.6656 55.6113 27.0349C55.6211 26.6123 55.5457 26.1913 55.3901 25.7982C55.2361 25.405 55.0035 25.0496 54.7103 24.7498C54.4171 24.45 54.0665 24.2158 53.68 24.0602C53.2934 23.9013 52.8806 23.8259 52.4661 23.8358ZM41.4943 24.9447C42.2298 24.9447 42.6327 25.3903 42.6327 25.9538C42.6327 26.5435 42.2379 26.9891 41.4943 26.9891H40.0314V24.9431H41.4943V24.9447ZM38.9388 30.1309H40.0331V28.0063H41.2846L42.8342 30.1309H44.1299L42.369 27.7655C42.7703 27.6607 43.1241 27.4199 43.3731 27.0824C43.6221 26.745 43.7499 26.3306 43.7351 25.9096C43.7351 24.7039 42.8506 23.9275 41.4844 23.9275H38.9372L38.9388 30.1309ZM33.063 26.7646H30.4454V27.6836H32.0392V28.9154C31.6264 29.112 31.1727 29.2054 30.7173 29.1923C29.4658 29.1923 28.537 28.388 28.537 27.0235C28.5288 26.7401 28.5763 26.4583 28.6779 26.1946C28.7794 25.9309 28.9334 25.6917 29.1284 25.4902C29.3249 25.2887 29.5575 25.1298 29.8164 25.025C30.0735 24.9185 30.3504 24.8677 30.6288 24.8743C30.9434 24.8645 31.2562 24.9202 31.5511 25.0365C31.8443 25.1528 32.1113 25.328 32.3374 25.5525L32.986 24.722C32.3423 24.1273 31.4987 23.8112 30.6305 23.8374C28.8089 23.8374 27.4264 25.1855 27.4264 27.0251C27.4264 28.963 28.7926 30.221 30.7189 30.221C31.5511 30.2292 32.3685 29.9868 33.0647 29.5248L33.063 26.7646Z" fill="#3D3D3D"/>
<path d="M62.565 19.7864H77.4044V17.9386H65.1073V12.0235H74.3428V10.1545H65.1073V4.70619H77.4027V2.86334H62.5634V19.7864H62.565Z" fill="#3D3D3D"/>
<path d="M70.2771 0.129333L68.2688 2.4292L74.5754 0.129333H70.2771Z" fill="#3D3D3D"/>
<path d="M99.9984 2.86498V19.7847H115V17.937H102.316V2.86334H99.9984V2.86498Z" fill="#3D3D3D"/>
<path d="M87.0199 2.86505L78.5822 19.7865H81.4341L83.5931 15.4062H93.7148L95.8918 19.7865H98.7158L90.2682 2.86505H87.0199ZM84.6611 13.2849L88.6367 5.20259L92.6615 13.2849H84.6611Z" fill="#3D3D3D"/>
<path d="M54.5122 12.7115C58.3142 11.6779 58.6844 8.79159 58.6647 7.76123C58.4387 4.73897 56.4402 2.86664 52.8512 2.86664H42.3904V19.7864H44.7754V12.6869H51.5849L56.5942 19.7831H59.6001C59.6001 19.7831 55.9963 15.0065 54.5122 12.7082V12.7115ZM52.5252 10.6852H44.7754V4.86838H52.7971C54.6416 4.86838 55.6818 5.74639 56.0553 6.86356C56.1667 7.27308 56.1961 7.70226 56.1404 8.12489C56.0848 8.54587 55.9472 8.95212 55.7342 9.31905C55.0642 10.4493 53.7914 10.6901 52.5252 10.6901" fill="#3D3D3D"/>
<path d="M27.9785 19.1132C23.3214 19.1132 19.4851 15.2981 19.4851 10.7016C19.4851 6.11005 23.1396 2.11313 28.1587 2.11313C29.271 2.1033 30.3734 2.31953 31.4037 2.74707C32.4341 3.17461 33.3711 3.80527 34.1606 4.60465C34.9502 5.4024 35.5776 6.35249 36.0051 7.39922C36.4327 8.44596 36.6522 9.56804 36.6522 10.7016C36.6505 15.2964 32.6339 19.1132 27.9785 19.1132ZM28.0588 0C21.3279 0 16.7396 4.8389 16.7396 10.695C16.7396 16.8608 21.8079 21.2132 28.0588 21.2132C34.3097 21.2132 39.373 16.923 39.373 10.695C39.373 4.8389 34.7274 0 28.0588 0Z" fill="#3D3D3D"/>
<path d="M10.7344 8.85061H12.4544L15.5782 2.86505H13.0654L10.7344 8.85061Z" fill="#3D3D3D"/>
<path d="M0 2.86498V19.7847H14.9999V17.937H2.32116V2.86334H0V2.86498Z" fill="#3D3D3D"/>
</svg>
