<svg width="122" height="32" viewBox="0 0 122 32" fill="none" xmlns="http://www.w3.org/2000/svg">
<path d="M38.5082 24.7553H39.6543V28.6519H41.7172V29.6834H38.5082V24.7553ZM43.0925 28.3081C43.1498 28.7666 43.4363 28.9958 44.0094 28.9958C44.4105 28.9958 44.7543 28.8812 45.1554 28.6519V29.4542C44.697 29.6834 44.3532 29.798 43.8947 29.798C42.7487 29.798 42.1183 29.1677 42.1183 28.0789C42.1183 26.9901 42.806 26.3025 43.8374 26.3025C44.8116 26.3025 45.3846 26.9328 45.3846 28.0216V28.3654H43.0925V28.3081ZM44.2959 27.6205C44.2386 27.2193 44.0667 26.9901 43.7228 26.9901C43.379 26.9901 43.1498 27.2193 43.0352 27.6205H44.2959ZM46.015 26.5317C46.5307 26.3025 46.9319 26.1879 47.3903 26.1879C47.9633 26.1879 48.3071 26.3598 48.4791 26.589C48.5937 26.7609 48.5937 26.9328 48.5937 27.3913V29.5688C48.0779 29.6261 47.5049 29.6834 47.1038 29.6834C46.1869 29.6834 45.7858 29.3969 45.7858 28.7092C45.7858 27.9643 46.2442 27.6205 47.6195 27.5059V27.2766C47.6195 27.1047 47.5049 26.9901 47.2757 26.9901C46.8745 26.9901 46.4734 27.1047 46.015 27.334V26.5317ZM47.6768 28.2508C46.9892 28.3081 46.7599 28.4227 46.7599 28.7092C46.7599 28.9385 46.8746 28.9958 47.1611 28.9958C47.333 28.9958 47.4476 28.9958 47.6195 28.9385L47.6768 28.2508ZM51.4589 24.5261H52.5476V29.5688C51.9746 29.6834 51.6308 29.7407 51.1723 29.7407C49.8544 29.7407 49.1667 29.1677 49.1667 28.0216C49.1667 26.9328 49.8544 26.2452 51.0004 26.2452C51.1723 26.2452 51.287 26.2452 51.4589 26.3025V24.5261ZM51.4589 27.162C51.3443 27.1047 51.2296 27.1047 51.115 27.1047C50.542 27.1047 50.2555 27.4486 50.2555 28.0216C50.2555 28.5946 50.542 28.8812 51.115 28.8812C51.2296 28.8812 51.287 28.8812 51.5162 28.8239L51.4589 27.162ZM53.3499 24.698H54.4387V25.7867H53.3499V24.698ZM53.3499 26.3025H54.4387V29.6834H53.3499V26.3025ZM55.2409 26.4744C55.9286 26.3025 56.387 26.2452 56.9027 26.2452C57.4758 26.2452 57.8196 26.3598 58.1061 26.589C58.3353 26.8182 58.3926 27.0474 58.3926 27.6205V29.6834H57.3039V27.6205C57.3039 27.2193 57.1893 27.1047 56.7881 27.1047C56.6162 27.1047 56.5016 27.1047 56.3297 27.162V29.6834H55.2409V26.4744ZM59.023 30.2565C59.4241 30.4857 59.7679 30.543 60.1691 30.543C60.5129 30.543 60.7994 30.4857 60.9713 30.2565C61.1432 30.0845 61.1432 29.9126 61.2005 29.5115C60.9713 29.6261 60.7994 29.6834 60.5129 29.6834C59.596 29.6834 58.9657 29.0531 58.9657 28.0789C58.9657 26.8755 59.8252 26.1879 61.4297 26.1879C61.8882 26.1879 62.232 26.2452 62.805 26.3598V27.2193C62.5185 27.162 62.4039 27.162 62.232 27.1047V29.0531C62.232 29.798 62.1747 30.2565 62.0028 30.543C61.659 31.116 61.0859 31.4025 60.2264 31.4025C59.8252 31.4025 59.4814 31.3452 59.0803 31.1733V30.2565H59.023ZM61.2005 28.5373V28.1362V27.1047C60.8567 27.1047 60.6848 27.1047 60.5129 27.2193C60.2264 27.3913 60.0544 27.6205 60.0544 28.0216C60.0544 28.5373 60.341 28.8812 60.7994 28.8812C60.914 28.8812 61.0286 28.8812 61.2005 28.8239V28.5373ZM64.868 24.8126C65.4983 24.7553 65.9568 24.7553 66.3579 24.7553C67.0455 24.7553 67.4467 24.8126 67.7905 24.9845C68.1916 25.2137 68.4208 25.5575 68.4208 26.0733C68.4208 26.589 68.1916 26.9328 67.5613 27.162C68.2489 27.3913 68.5354 27.7351 68.5354 28.3654C68.5354 28.9385 68.2489 29.2823 67.7332 29.5115C67.3893 29.6834 66.9309 29.7407 66.1287 29.7407C65.7275 29.7407 65.2691 29.7407 64.8107 29.6834V24.8126H64.868ZM65.9567 26.7609H66.1287C66.759 26.7609 66.9309 26.7609 67.1028 26.589C67.2174 26.4744 67.2747 26.3025 67.2747 26.1306C67.2747 25.7294 66.9882 25.5575 66.4152 25.5575H65.9567V26.7609ZM65.9567 28.8239H66.5298C67.1028 28.8239 67.4466 28.5946 67.4466 28.1935C67.4466 27.7924 67.1028 27.5632 66.4725 27.5632H66.014L65.9567 28.8239ZM70.0826 28.3081C70.1399 28.7666 70.4265 28.9958 70.9995 28.9958C71.4006 28.9958 71.7444 28.8812 72.1456 28.6519V29.4542C71.6871 29.6834 71.3433 29.798 70.8849 29.798C69.7388 29.798 69.1085 29.1677 69.1085 28.0789C69.1085 26.9901 69.7961 26.3025 70.8276 26.3025C71.8017 26.3025 72.3748 26.9328 72.3748 28.0216V28.3654H70.0826V28.3081ZM71.3433 27.6205C71.286 27.2193 71.1141 26.9901 70.7703 26.9901C70.4265 26.9901 70.1972 27.2193 70.0826 27.6205H71.3433ZM73.6355 26.3025C73.7501 26.7036 73.8647 27.2766 74.0366 27.6778L74.2658 28.3654L74.3231 29.0531L74.3804 28.3654L74.5523 27.8497L75.0681 26.3025H76.1568C75.7557 27.5059 75.4692 28.3081 75.0108 29.2823L74.7242 29.9126L74.4377 30.4857C74.3231 30.7149 74.2085 30.9441 74.0366 31.4025H73.0051L73.177 30.9441L73.4636 30.3138C73.5209 30.1418 73.5782 30.0272 73.6355 29.9699C73.6355 29.9699 73.6928 29.8553 73.6928 29.798C73.177 28.7092 72.7759 27.5059 72.4321 26.3598H73.6355V26.3025ZM79.6524 27.9643C79.6524 29.0531 78.9647 29.798 77.876 29.798C76.7872 29.798 76.1568 29.1104 76.1568 28.0216C76.1568 26.9328 76.8445 26.2452 77.9333 26.2452C79.022 26.2452 79.6524 26.8755 79.6524 27.9643ZM77.3029 28.0216C77.3029 28.5946 77.5321 28.9385 77.9333 28.9385C78.3344 28.9385 78.5636 28.5946 78.5636 28.0216C78.5636 27.4486 78.3344 27.1047 77.9333 27.1047C77.5321 27.0474 77.3029 27.3913 77.3029 28.0216ZM80.34 26.4744C81.0277 26.3025 81.4861 26.2452 82.0018 26.2452C82.5749 26.2452 82.9187 26.3598 83.2052 26.589C83.4344 26.8182 83.4917 27.0474 83.4917 27.6205V29.6834H82.403V27.6205C82.403 27.2193 82.2884 27.1047 81.8872 27.1047C81.7153 27.1047 81.6007 27.1047 81.4288 27.162V29.6834H80.34V26.4744ZM86.3569 24.5261H87.4457V29.5688C86.8727 29.6834 86.5288 29.7407 86.0704 29.7407C84.7524 29.7407 84.0648 29.1677 84.0648 28.0216C84.0648 26.9328 84.7524 26.2452 85.8985 26.2452C86.0704 26.2452 86.185 26.2452 86.3569 26.3025V24.5261ZM86.3569 27.162C86.2423 27.1047 86.1277 27.1047 86.0131 27.1047C85.4401 27.1047 85.1536 27.4486 85.1536 28.0216C85.1536 28.5946 85.4401 28.8812 86.0131 28.8812C86.1277 28.8812 86.185 28.8812 86.4142 28.8239L86.3569 27.162ZM93.8638 29.4542C93.348 29.6834 92.8896 29.7407 92.3165 29.7407C90.6547 29.7407 89.566 28.7666 89.566 27.2766C89.566 25.7294 90.712 24.698 92.3738 24.698C92.8896 24.698 93.2907 24.7553 93.8064 24.9845V26.0733C93.2907 25.7867 92.9469 25.6721 92.4884 25.6721C91.3997 25.6721 90.7693 26.2452 90.7693 27.2193C90.7693 28.1362 91.3997 28.7092 92.4312 28.7092C92.9469 28.7092 93.2907 28.5946 93.8064 28.3081V29.4542H93.8638ZM94.666 24.5261H95.7548V26.4171C96.0986 26.3025 96.2705 26.2452 96.557 26.2452C97.0155 26.2452 97.302 26.3598 97.5312 26.589C97.7031 26.7609 97.8177 26.9901 97.8177 27.4486V29.7407H96.7289V27.6778C96.7289 27.334 96.557 27.162 96.2132 27.162C96.0413 27.162 95.8694 27.2193 95.6975 27.2766V29.7407H94.6087L94.666 24.5261ZM99.4795 28.3081C99.5368 28.7666 99.8234 28.9958 100.396 28.9958C100.798 28.9958 101.141 28.8812 101.542 28.6519V29.4542C101.084 29.6834 100.74 29.798 100.282 29.798C99.1357 29.798 98.5054 29.1677 98.5054 28.0789C98.5054 26.9901 99.193 26.3025 100.224 26.3025C101.199 26.3025 101.772 26.9328 101.772 28.0216V28.3654H99.4795V28.3081ZM100.683 27.6205C100.626 27.2193 100.454 26.9901 100.11 26.9901C99.766 26.9901 99.5368 27.2193 99.4222 27.6205H100.683ZM102.345 26.4744C102.975 26.3025 103.376 26.2452 103.835 26.2452C104.293 26.2452 104.522 26.3025 104.866 26.4744C105.325 26.3025 105.611 26.2452 106.069 26.2452C106.528 26.2452 106.872 26.3598 107.158 26.589C107.387 26.8182 107.445 27.0474 107.445 27.5632V29.7407H106.356V27.6205C106.356 27.2767 106.184 27.162 105.898 27.162C105.726 27.162 105.611 27.162 105.439 27.2766C105.496 27.3913 105.496 27.4486 105.496 27.6205V29.7407H104.408V27.6205C104.408 27.2767 104.236 27.1047 103.892 27.1047C103.72 27.1047 103.605 27.1047 103.434 27.162V29.6834H102.345V26.4744ZM108.247 24.698H109.336V25.7867H108.247V24.698ZM108.247 26.3025H109.336V29.6834H108.247V26.3025ZM110.023 28.7092C110.425 28.9385 110.711 28.9958 111.055 28.9958C111.341 28.9958 111.513 28.9385 111.513 28.7666C111.513 28.6519 111.456 28.5946 111.341 28.5373L110.94 28.3654C110.31 28.0789 110.081 27.7924 110.081 27.334C110.081 26.6463 110.596 26.2452 111.513 26.2452C111.857 26.2452 112.086 26.3025 112.488 26.4171V27.2766C112.144 27.1047 111.914 27.0474 111.628 27.0474C111.341 27.0474 111.17 27.1047 111.17 27.2766C111.17 27.3913 111.227 27.4486 111.341 27.5059L111.743 27.6778C112.43 28.0216 112.602 28.1935 112.602 28.7092C112.602 29.4542 112.144 29.798 111.17 29.798C110.768 29.798 110.482 29.7407 110.081 29.5688V28.7092H110.023ZM112.831 26.3598H113.404V25.4429H114.379V26.3598H115.123V27.162H114.379V28.3081C114.379 28.7666 114.493 28.8812 114.837 28.8812H115.066V29.6834C114.837 29.7407 114.665 29.7407 114.493 29.7407C114.035 29.7407 113.691 29.6261 113.519 29.3969C113.347 29.225 113.347 29.0531 113.347 28.48V27.2193H112.774V26.3598H112.831ZM115.754 26.589C116.327 26.3598 116.843 26.2452 117.358 26.2452C117.645 26.2452 117.817 26.2452 118.103 26.3598V27.2766C117.874 27.2193 117.702 27.162 117.473 27.162C117.244 27.162 117.072 27.2193 116.785 27.2766V29.7407H115.754V26.589ZM119.536 26.3025C119.651 26.7036 119.765 27.2766 119.937 27.6778L120.166 28.3654L120.224 29.0531L120.281 28.3654L120.453 27.8497L120.968 26.3025H122.057C121.656 27.5059 121.37 28.3081 120.911 29.2823L120.625 29.9126L120.338 30.4857C120.224 30.7149 120.109 30.9441 119.937 31.4025H118.906L119.077 30.9441L119.364 30.3138C119.421 30.1418 119.479 30.0272 119.536 29.9699C119.536 29.9699 119.593 29.8553 119.593 29.798C119.077 28.7092 118.676 27.5059 118.333 26.3598H119.536V26.3025Z" fill="#991D85"/>
<path d="M121.427 21.0305H119.192C118.963 21.0305 118.791 20.8586 118.791 20.6294C118.734 19.2541 118.218 17.9934 117.416 16.9619C117.301 16.79 117.129 16.6181 116.957 16.4462C116.155 15.5293 114.894 14.9563 113.576 14.9563H112.144V20.5721C112.144 20.8013 111.972 21.0305 111.685 21.0305H109.393C109.164 21.0305 108.935 20.8586 108.935 20.5721V7.27756C108.935 7.04835 109.107 6.81913 109.393 6.81913H111.685C111.915 6.81913 112.144 6.99104 112.144 7.27756V11.7473H113.576C116.098 11.7473 118.103 9.74163 118.161 7.22026C118.161 6.99104 118.333 6.81913 118.562 6.81913H120.911C121.14 6.81913 121.312 6.99104 121.37 7.22026C121.312 9.68433 120.109 11.9192 118.275 13.2945C118.791 13.6956 119.192 14.0967 119.593 14.5552C120.969 16.1597 121.828 18.2226 121.943 20.5148C121.943 20.744 121.771 20.9159 121.542 20.9732L121.427 21.0305ZM102.803 20.5721V7.27756C102.803 7.04835 102.975 6.81913 103.262 6.81913H105.554C105.783 6.81913 106.012 6.99104 106.012 7.27756V20.5721C106.012 20.8013 105.84 21.0305 105.554 21.0305H103.262C102.975 21.0305 102.803 20.8013 102.803 20.5721ZM96.4998 10.1428C95.2964 9.68433 93.9784 9.39781 92.6031 9.39781C91.2278 9.39781 89.9098 9.62702 88.7065 10.1428V20.5721C88.7065 20.8013 88.5345 21.0305 88.248 21.0305H85.9559C85.7267 21.0305 85.4974 20.8586 85.4974 20.5721V8.42364C85.4974 8.30903 85.5547 8.13712 85.6693 8.07982C87.7323 6.93374 90.0818 6.24609 92.5458 6.24609C95.0672 6.24609 97.4167 6.93374 99.4223 8.07982C99.5369 8.13712 99.5942 8.30903 99.5942 8.42364V20.5721C99.5942 20.8013 99.4223 21.0305 99.1358 21.0305H96.8436C96.6144 21.0305 96.3852 20.8586 96.3852 20.5721V10.1428H96.4998Z" fill="#991D85"/>
<path d="M79.2513 10.1428C78.0479 9.68433 76.7299 9.39781 75.3546 9.39781C73.9793 9.39781 72.6613 9.62702 71.4579 10.1428V17.6496C72.6613 18.108 73.9793 18.3945 75.3546 18.3945C76.7299 18.3945 78.0479 18.1653 79.2513 17.6496V10.1428ZM75.3546 21.6035C72.8905 21.6035 70.5411 20.9732 68.4781 19.8271C68.3635 19.7698 68.3062 19.6552 68.2489 19.4833V8.42364C68.2489 8.25173 68.3635 8.13712 68.4781 8.07982C70.4838 6.93374 72.8332 6.24609 75.3546 6.24609C77.876 6.24609 80.2254 6.87644 82.2311 8.07982C82.3457 8.13712 82.403 8.30903 82.4603 8.42364V19.4833C82.4603 19.6552 82.3457 19.7698 82.2311 19.8271C80.1681 20.9732 77.876 21.6035 75.3546 21.6035Z" fill="#991D85"/>
<path d="M62.9769 6.81921H66.0713C66.3006 6.81921 66.4725 7.04843 66.4725 7.27765V7.44956L61.3724 20.7441C61.3151 20.916 61.1432 21.0306 60.9713 21.0306H57.0746C56.9027 21.0306 56.7308 20.916 56.6735 20.8014L51.8027 7.44956V7.33495C51.8027 7.10573 51.9746 6.93382 52.2038 6.87652H55.2982C55.4701 6.87652 55.642 6.99113 55.6993 7.16304L59.023 17.8216L62.5758 7.10573C62.6331 6.99113 62.805 6.87652 62.9769 6.81921ZM50.0836 21.0306H38.852C38.6801 21.0306 38.5655 20.916 38.4509 20.8014C37.3048 18.7957 36.6744 16.4463 36.6744 13.9249C36.6744 11.4035 37.3048 9.11137 38.4509 7.04843C38.5082 6.93382 38.6801 6.81921 38.852 6.81921H49.4532C49.6824 6.81921 49.797 6.99113 49.8543 7.22034V9.6271C49.8543 9.85632 49.6824 10.0282 49.4532 10.0282H40.5711C40.2846 10.7732 40.0554 11.5181 39.9408 12.3204H48.8802C49.1094 12.3204 49.2813 12.4923 49.2813 12.7215V15.071C49.2813 15.3002 49.1094 15.4721 48.8802 15.5294H39.9981C40.1127 16.3317 40.3419 17.0766 40.6284 17.8216H50.1409C50.3701 17.8216 50.542 17.9935 50.542 18.2227V20.5722C50.4847 20.8014 50.3128 21.0306 50.0836 21.0306Z" fill="#991D85"/>
<path d="M13.9248 3.15171C7.96524 3.15171 3.15171 7.96524 3.15171 13.9248C3.15171 19.8845 7.96524 24.698 13.9248 24.698C17.1912 24.698 20.0564 23.2654 22.062 20.9732H10.7731C10.6585 20.9732 10.4866 20.9159 10.4293 20.9159C7.90794 19.6552 6.13152 17.0193 6.13152 13.9248C6.13152 10.8877 7.85063 8.25176 10.4293 6.93377C10.5439 6.87647 10.6585 6.87647 10.7731 6.87647H17.0766C17.2485 6.87647 17.3631 6.93377 17.4204 6.93377C18.5665 7.50681 19.4833 8.30906 20.2283 9.34054C20.4575 9.62705 20.2283 10.0282 19.8845 10.0282H11.4035C10.1428 10.8304 9.28323 12.263 9.28323 13.9248C9.28323 15.5294 10.1428 16.962 11.4035 17.8215H26.7036C26.9901 17.8215 27.2194 18.108 27.1047 18.3946C25.271 23.8957 20.0564 27.8497 13.9248 27.8497C6.24612 27.8497 0 21.6036 0 13.9248C0 6.24612 6.24612 0 13.9248 0C21.6036 0 27.8497 6.24612 27.8497 13.9248C27.8497 14.326 27.8497 14.7271 27.7924 15.1282C27.7924 15.3574 27.5632 15.5294 27.3913 15.5294H12.4922C12.3203 15.5294 12.1484 15.4147 12.0911 15.2428C11.9192 14.8417 11.8046 14.3833 11.8046 13.9248C11.8046 13.4664 11.9192 13.008 12.0911 12.6069C12.1484 12.4349 12.3203 12.3203 12.4922 12.3203H24.5834C23.7811 7.16299 19.3114 3.15171 13.9248 3.15171Z" fill="#991D85"/>
</svg>
