<?xml version="1.0" encoding="UTF-8"?>
<svg height="100%" width="100%" xmlns="http://www.w3.org/2000/svg">
	<defs>
		<font horiz-adv-x="506" id="web">
			<font-face alphabetic="0" ascent="1001" descent="-239" font-family="" panose-1="2 0 5 3 4 0 0 2 0 4"/>
			<missing-glyph d="" horiz-adv-x="255"/>
			<glyph d="" horiz-adv-x="255" unicode=" "/>
			<glyph d="M186 717V221L81 194V691ZM134 118Q161 118 180 99T199 53Q199 26 180 7T134 -12Q107 -12 88 7T69 53Q69 80 88 99T134 118Z" horiz-adv-x="269" unicode="!"/>
			<glyph d="M52 717H144L134 477H62ZM208 717H300L290 477H218Z" horiz-adv-x="353" unicode="&quot;"/>
			<glyph d="M244 718H328L286 525H430L470 718H555L517 525H606V440H499L466 276H598V189H449L409 0H324L361 189H219L182 0H98L136 190H45V276H154L187 440H45V525H202ZM271 440L238 276H380L414 440Z" horiz-adv-x="652" unicode="#"/>
			<glyph d="M254 765H332V691Q377 690 422 681T507 655L474 570Q445 585 406 595T332 608V409Q383 383 419 360T479 313T514 262T525 203Q525 168 513 136T478 81T418 41T332 22V-71H254V21Q199 23 150 33T59 60L88 145Q123 128 167 117T254 104V331Q206 356 171 376T112 419T77 466T66 527Q66 555 76 582T109 632T168 670T254 689ZM253 607Q208 604 185 584T162 536Q162 523 166 511T180 489T207 466T253 441ZM332 296V105Q380 111 403 134T426 193Q426 225 405 247T332 296Z" horiz-adv-x="584" unicode="$"/>
			<glyph d="M221 729Q258 729 290 716T345 677T381 615T395 531Q395 483 381 446T345 383T290 345T221 332Q183 332 151 344T96 381T59 442T46 527Q46 575 59 612T96 676T152 715T221 729ZM617 729H701L293 -12H208ZM221 657Q176 657 154 621T133 531Q133 505 138 482T154 442T181 415T221 405Q266 405 287 439T309 527Q309 582 287 619T221 657ZM689 385Q726 385 758 372T813 333T849 271T863 187Q863 139 849 102T813 39T758 1T689 -12Q651 -12 619 0T564 37T527 98T514 183Q514 231 527 268T564 332T620 371T689 385ZM689 316Q644 316 622 280T601 187Q601 160 606 136T622 95T649 68T689 58Q734 58 755 93T777 184Q777 212 771 236T755 278T727 306T689 316Z" horiz-adv-x="909" unicode="%"/>
			<glyph d="M306 729Q353 729 387 717T444 686T476 641T487 587Q487 556 477 531T449 482T401 436T334 386L502 194Q514 217 520 248T527 314Q527 326 525 340T520 368L602 393Q607 376 610 355T614 314Q614 256 599 211T558 132L676 0H543L491 60Q407 -12 282 -12Q171 -12 108 36T45 179Q45 212 53 238T80 289T127 338T197 392Q179 412 164 431T138 471T121 516T115 570Q115 598 125 626T159 678T219 715T306 729ZM302 649Q258 649 235 628T213 573Q213 557 216 544T228 516T249 486T282 448Q312 470 332 486T366 518T384 547T390 580Q390 612 366 630T302 649ZM252 330Q222 307 202 288T171 253T156 219T152 184Q152 157 163 136T193 101T239 80T297 73Q337 73 373 85T436 120Z" horiz-adv-x="685" unicode="&amp;"/>
			<glyph d="M52 717H144L134 477H62Z" horiz-adv-x="197" unicode="'"/>
			<glyph d="M279 772H349Q270 644 232 522T195 283Q195 210 207 143T240 15T289 -102T348 -209H279Q250 -177 215 -127T151 -13T100 125T80 283Q80 350 96 417T139 549T202 670T279 772Z" horiz-adv-x="395" unicode="("/>
			<glyph d="M48 772H117Q158 727 194 670T258 549T301 417T317 283Q317 201 296 125T246 -13T181 -127T117 -209H49Q80 -158 108 -102T157 15T190 143T203 283Q203 401 164 522T48 772Z" horiz-adv-x="395" unicode=")"/>
			<glyph d="M229 772H329L313 614L442 707L492 619L347 554L490 488L440 401L311 495L326 337H225L242 495L113 404L63 491L209 556L64 622L115 709L243 614Z" horiz-adv-x="554" unicode="*"/>
			<glyph d="M213 589H294V415H467V334H294V161H213V334H39V415H213Z" unicode="+"/>
			<glyph d="M127 116Q160 116 178 93T197 34Q197 -18 176 -60T102 -149L58 -110Q86 -85 101 -60T120 -17Q92 -13 76 4T60 47Q60 76 79 96T127 116Z" horiz-adv-x="258" unicode=","/>
			<glyph d="M68 323H336V228H68Z" horiz-adv-x="404" unicode="-"/>
			<glyph d="M128 117Q156 117 176 97T197 49Q197 21 176 1T128 -19Q100 -19 80 1T60 49Q60 77 80 97T128 117Z" horiz-adv-x="258" unicode="."/>
			<glyph d="M388 772H478L143 -12H54Z" horiz-adv-x="515" unicode="/"/>
			<glyph d="M304 729Q373 729 418 694T489 608T525 494T536 379Q536 287 521 214T474 91T394 14T279 -12Q217 -12 173 18T101 97T61 210T48 342Q48 444 66 517T117 637T198 707T304 729ZM297 645Q167 645 167 338Q167 207 200 139T287 72Q418 72 418 368Q418 505 385 575T297 645Z" horiz-adv-x="584" unicode="0"/>
			<glyph d="M319 729H373V0H262V614L137 564L125 654Z" horiz-adv-x="584" unicode="1"/>
			<glyph d="M290 729Q390 729 446 682T502 546Q502 501 485 458T435 367T352 261T238 130L200 87H516V0H57V58L102 108Q181 198 235 262T322 376T370 464T385 542Q385 594 356 618T274 642Q199 642 111 585L68 663Q123 699 178 714T290 729Z" horiz-adv-x="584" unicode="2"/>
			<glyph d="M271 729Q372 729 426 682T480 554Q480 518 470 490T443 443T407 408T368 385Q391 380 415 367T460 334T493 282T506 208Q506 180 497 142T460 70T376 12T230 -12Q180 -12 131 -3T41 24L73 110Q115 91 154 83T229 75Q277 75 307 88T355 122T380 165T387 209Q387 245 374 269T339 307T284 327T211 333H125L150 419H220Q285 419 325 452T366 545Q366 592 337 617T250 643Q207 643 169 630T92 592L48 669Q97 698 150 713T271 729Z" horiz-adv-x="584" unicode="3"/>
			<glyph d="M369 729H455V280H545V195H455V0H348V195H28V283ZM348 566L132 280H348Z" horiz-adv-x="584" unicode="4"/>
			<glyph d="M134 717H495L467 631H219L205 446Q218 449 238 451T279 453Q386 453 448 396T511 234Q511 178 494 132T444 55T357 5T234 -12Q181 -12 133 -1T53 24L86 111Q112 97 149 87T232 77Q266 77 295 85T347 113T381 160T393 230Q393 268 381 294T349 337T300 361T239 368Q209 368 171 363T104 350Z" horiz-adv-x="584" unicode="5"/>
			<glyph d="M370 729Q405 729 437 724T495 711L466 623Q443 632 420 636T368 641Q322 641 287 621T230 568T194 487T177 386Q208 412 246 427T326 442Q372 442 410 427T477 385T520 316T536 224Q536 171 520 128T475 53T401 5T301 -12Q236 -12 189 13T113 80T69 177T55 294Q55 341 61 391T83 490T122 582T181 658T262 710T370 729ZM304 358Q270 358 238 344T171 296Q170 288 169 278T169 261Q169 220 177 185T203 125T246 86T304 72Q358 72 388 111T419 226Q419 291 391 324T304 358Z" horiz-adv-x="584" unicode="6"/>
			<glyph d="M90 717H532V644L251 0H126L421 631H62Z" horiz-adv-x="584" unicode="7"/>
			<glyph d="M296 729Q341 729 379 719T446 689T491 638T507 568Q507 505 473 464T384 393Q421 371 449 349T495 305T523 255T533 194Q533 143 513 104T459 40T380 1T287 -12Q240 -12 197 0T121 38T69 99T50 184Q50 250 84 298T189 382Q164 397 143 414T106 451T82 495T74 552Q74 597 91 630T137 685T207 718T296 729ZM287 649Q241 649 209 627T178 564Q178 543 186 526T210 495T249 467T302 438Q350 463 377 490T404 560Q404 585 394 602T368 629T330 644T287 649ZM265 339Q208 304 182 272T157 194Q157 138 193 103T297 69Q357 69 393 98T430 182Q430 219 406 245T348 292Q325 306 305 317T265 339Z" horiz-adv-x="584" unicode="8"/>
			<glyph d="M288 729Q354 729 400 705T475 641T517 544T531 423Q531 372 525 320T506 220T470 129T413 55T331 6T219 -12Q179 -12 143 -6T78 7L103 98Q126 90 156 83T218 77Q267 77 301 97T359 153T394 235T410 333Q377 307 340 292T261 278Q160 278 105 335T50 490Q50 542 66 585T114 661T189 711T288 729ZM286 645Q230 645 198 605T167 494Q167 431 192 396T280 362Q314 362 347 376T417 425Q418 430 418 433Q418 437 418 442Q418 481 412 518T391 583T350 628T286 645Z" horiz-adv-x="584" unicode="9"/>
			<glyph d="M128 480Q156 480 176 460T197 412Q197 384 176 364T128 344Q100 344 80 364T60 412Q60 441 80 460T128 480ZM128 122Q156 122 176 102T197 54Q197 26 176 6T128 -14Q100 -14 80 6T60 54Q60 82 80 102T128 122Z" horiz-adv-x="258" unicode=":"/>
			<glyph d="M146 479Q174 479 194 458T215 410Q215 382 194 362T146 342Q118 342 98 362T78 410Q78 438 98 458T146 479ZM136 120Q168 120 186 98T205 38Q205 -13 183 -55T105 -144L68 -109Q95 -83 109 -58T128 -13Q101 -9 84 8T68 52Q68 80 87 100T136 120Z" horiz-adv-x="258" unicode=";"/>
			<glyph d="M467 588V506L140 374L467 243V161L39 332V417Z" unicode="&lt;"/>
			<glyph d="M39 504H467V422H39ZM39 329H467V247H39Z" unicode="="/>
			<glyph d="M39 588L467 417V332L39 161V243L366 374L39 506Z" unicode="&gt;"/>
			<glyph d="M202 729Q298 729 356 680T414 534Q414 490 401 451T364 383T300 334T209 308V214L115 190V387H143Q220 387 262 426T304 532Q304 586 275 615T189 644Q151 644 117 633T57 605L21 678Q56 701 102 715T202 729ZM168 120Q196 120 215 101T234 54Q234 27 215 8T168 -11Q141 -11 121 8T102 54Q102 82 121 101T168 120Z" horiz-adv-x="463" unicode="?"/>
			<glyph d="M524 729Q609 729 678 703T797 630T873 518T900 375Q900 290 878 222T818 106T731 32T628 7Q587 7 561 21T534 68Q508 39 474 23T401 7Q357 7 323 23T268 66T235 129T224 208Q224 266 241 323T292 425T378 498T499 526Q560 526 611 500L683 518L631 144Q628 124 628 118Q628 105 634 99T655 93Q686 93 715 115T766 174T803 260T817 365Q817 499 739 575T517 652Q424 652 352 619T232 530T157 395T132 226Q132 144 159 77T235 -35T350 -107T496 -132Q598 -132 686 -89T850 44L909 -9Q822 -114 719 -161T492 -209Q397 -209 316 -179T175 -94T82 42T49 226Q49 335 81 427T175 587T324 691T524 729ZM499 447Q454 447 422 426T369 371T338 296T329 215Q329 188 334 165T350 124T379 97T421 87Q463 87 494 116T531 188L565 432Q536 447 499 447Z" horiz-adv-x="963" unicode="@"/>
			<glyph d="M396 729L666 0H553L476 213H207L126 0H20L295 705ZM345 574L241 299H444Z" horiz-adv-x="686" unicode="A"/>
			<glyph d="M261 723Q382 723 442 688T502 564Q502 510 469 465T383 398Q416 393 446 379T498 344T534 292T548 225Q548 163 524 119T460 47T363 6T242 -6Q200 -6 160 -4T86 0V716Q132 720 174 721T261 723ZM263 642Q244 642 228 641T198 638V423H231Q265 423 294 430T344 454T378 493T391 550Q391 601 360 621T263 642ZM198 341V79Q212 77 225 77Q239 77 251 77Q290 77 323 85T379 110T416 153T430 216Q430 253 418 277T384 316T332 335T265 341Z" horiz-adv-x="592" unicode="B"/>
			<glyph d="M400 729Q457 729 504 719T594 691L560 602Q525 621 484 630T401 640Q295 640 232 569T170 353Q170 219 225 148T389 78Q436 78 480 91T572 132L611 49Q555 15 498 1T375 -12Q294 -12 233 14T131 87T71 199T51 342Q51 436 75 508T145 630T254 704T400 729Z" horiz-adv-x="642" unicode="C"/>
			<glyph d="M305 723Q389 723 455 701T568 637T639 532T664 385Q664 271 634 196T549 76T418 12T249 -6Q232 -6 211 -5T169 -4T126 -3T86 0V715Q138 720 196 721T305 723ZM283 637Q264 637 241 636T198 633V84Q229 81 261 81Q328 81 380 96T469 146T525 236T545 370Q545 448 526 499T472 581T389 624T283 637Z" horiz-adv-x="714" unicode="D"/>
			<glyph d="M86 717H494L466 631H198V417H437L411 331H198V87H508V0H86Z" horiz-adv-x="536" unicode="E"/>
			<glyph d="M86 717H512L485 631H198V413H446L418 326H198V0H86Z" horiz-adv-x="534" unicode="F"/>
			<glyph d="M401 729Q449 729 498 720T596 691L561 602Q524 619 484 629T400 640Q349 640 306 624T233 573T186 482T170 348Q170 215 225 146T386 77Q421 77 456 88T511 111V333L621 361V62Q576 31 513 9T372 -12Q293 -12 233 13T132 85T71 196T51 339Q51 438 75 511T145 633T255 705T401 729Z" horiz-adv-x="692" unicode="G"/>
			<glyph d="M86 717H198V423H518V717H631V0H518V336H198V0H86Z" horiz-adv-x="716" unicode="H"/>
			<glyph d="M86 717H198V0H86Z" horiz-adv-x="284" unicode="I"/>
			<glyph d="M87 717H200V94Q200 53 192 21T166 -37T117 -86T40 -128L-3 -46Q25 -33 42 -21T70 6T83 44T87 100Z" horiz-adv-x="285" unicode="J"/>
			<glyph d="M86 717H198V419L451 717H589L310 389L597 0H460L198 357V0H86Z" horiz-adv-x="603" unicode="K"/>
			<glyph d="M86 717H198V88H508V0H86Z" horiz-adv-x="530" unicode="L"/>
			<glyph d="M267 729L458 145L651 698L792 729L855 0H748L700 573L505 16L407 -7L218 564L170 0H66L125 698Z" horiz-adv-x="922" unicode="M"/>
			<glyph d="M203 729L526 198V717H624V10L536 -12L184 561V0H86V701Z" horiz-adv-x="710" unicode="N"/>
			<glyph d="M384 729Q463 729 521 702T618 627T676 515T695 376Q695 296 674 225T611 102T508 19T364 -12Q287 -12 228 14T130 87T71 198T51 338Q51 420 72 491T135 615T239 698T384 729ZM378 640Q322 640 282 615T217 551T180 459T169 353Q169 222 219 149T367 77Q421 77 461 100T526 163T564 253T577 362Q577 413 567 463T535 552T473 616T378 640Z" horiz-adv-x="746" unicode="O"/>
			<glyph d="M259 723Q313 723 364 716T455 688T519 631T543 535Q543 468 513 422T435 347T325 304T198 289V0H86V716Q133 720 177 721T259 723ZM230 639Q215 639 198 637V374Q237 375 277 382T349 407T402 452T423 525Q423 559 410 581T376 616T324 634T260 639Q246 639 230 639Z" horiz-adv-x="574" unicode="P"/>
			<glyph d="M384 729Q463 729 521 701T618 626T676 514T695 376Q695 317 684 263T650 164T595 83T518 24Q557 -4 593 -18T671 -33Q686 -33 707 -30V-118Q693 -121 679 -122T652 -123Q626 -123 599 -117T544 -99T484 -64T418 -8Q405 -10 391 -11T364 -12Q287 -12 228 14T130 86T71 197T51 338Q51 419 72 490T134 615T238 698T384 729ZM378 640Q321 640 281 615T217 550T180 458T169 353Q169 219 220 148T367 77Q422 77 461 100T526 163T564 254T577 362Q577 413 567 463T535 552T473 615T378 640Z" horiz-adv-x="746" unicode="Q"/>
			<glyph d="M273 723Q316 723 363 718T450 694T514 638T540 537Q540 496 527 463T494 407T444 366T383 339L601 0H471L273 316Q255 314 235 312T198 310V0H86V716Q136 720 182 721T273 723ZM272 639Q254 639 233 638T198 636V395Q319 400 371 432T424 533Q424 567 412 587T379 619T331 635T272 639Z" horiz-adv-x="624" unicode="R"/>
			<glyph d="M302 729Q355 729 400 720T487 696L455 605Q419 620 377 630T294 640Q253 640 226 632T185 611T164 582T159 551Q159 533 164 517T186 487T231 456T308 419T394 378T459 333T499 275T513 198Q513 151 497 112T450 46T370 3T255 -12Q198 -12 140 -2T38 26L69 116Q108 99 160 88T261 77Q327 77 365 104T404 185Q404 208 396 225T370 259T321 290T245 326Q201 344 165 363T105 407T67 465T54 544Q54 576 65 609T105 668T181 712T302 729Z" horiz-adv-x="556" unicode="S"/>
			<glyph d="M36 717H592L564 630H356V0H244V630H8Z" horiz-adv-x="600" unicode="T"/>
			<glyph d="M81 717H193V285Q193 239 199 200T221 134T268 92T347 77Q396 77 426 91T474 132T497 197T504 283V717H609V279Q609 130 547 59T343 -12Q275 -12 225 3T144 53T96 143T81 279Z" horiz-adv-x="689" unicode="U"/>
			<glyph d="M21 717H135L329 139L529 717H635L383 14L274 -12Z" horiz-adv-x="656" unicode="V"/>
			<glyph d="M519 729L669 157L828 717H929L728 15L615 -12L470 541L320 14L208 -12L20 717H130L272 156L430 709Z" horiz-adv-x="947" unicode="W"/>
			<glyph d="M49 717H182L343 461L506 717H626L402 381L650 0H517L333 293L142 0H23L273 374Z" horiz-adv-x="669" unicode="X"/>
			<glyph d="M21 717H146L306 413L478 717H593L354 312V0H242V311Z" horiz-adv-x="611" unicode="Y"/>
			<glyph d="M79 717H561V670L194 87H566L539 0H51V68L404 631H51Z" horiz-adv-x="608" unicode="Z"/>
			<glyph d="M127 759H381V688H233V-125H381V-197H127Z" horiz-adv-x="431" unicode="["/>
			<glyph d="M35 772H124L459 -12H369Z" horiz-adv-x="515" unicode="\"/>
			<glyph d="M50 759H304V-197H50V-125H199V688H50Z" horiz-adv-x="431" unicode="]"/>
			<glyph d="M255 717L385 516L410 352L326 460L188 490L45 352L135 553Z" horiz-adv-x="498" unicode="^"/>
			<glyph d="M-1 -76H511V-124H-1Z" horiz-adv-x="510" unicode="_"/>
			<glyph d="M30 766H177L310 627H221Z" horiz-adv-x="340" unicode="`"/>
			<glyph d="M272 562Q314 562 348 552T407 521T444 463T457 373V133Q457 96 464 66T483 15L388 -8Q380 3 371 22T361 58Q322 20 284 4T202 -12Q125 -12 86 31T48 145Q48 217 92 262T225 325L352 349V377Q352 435 329 459T261 483Q219 483 181 468T110 428L70 498Q104 523 156 542T272 562ZM350 278L266 261Q204 248 179 218T155 143Q155 106 173 85T226 65Q256 65 287 81T350 129Z" horiz-adv-x="534" unicode="a"/>
			<glyph d="M182 772V507Q214 536 249 549T329 562Q376 562 413 542T477 488T518 404T533 295Q533 149 467 71T284 -7Q246 -7 215 0T152 19L77 0V746ZM305 480Q267 480 235 460T182 417V95Q217 76 263 76Q338 76 380 128T422 286Q422 480 305 480Z" horiz-adv-x="581" unicode="b"/>
			<glyph d="M306 562Q348 562 387 553T457 530L423 450Q395 464 367 471T308 479Q227 479 192 423T158 266Q158 179 192 126T299 74Q331 74 362 85T423 116L465 39Q429 15 387 1T289 -12Q235 -12 191 6T115 60T65 145T48 258Q48 339 67 397T120 491T202 545T306 562Z" horiz-adv-x="511" unicode="c"/>
			<glyph d="M504 772V130Q504 91 511 64T532 15L438 -8Q421 16 411 53Q385 24 348 6T262 -12Q214 -12 175 7T107 62T63 150T48 271Q48 341 66 395T115 487T187 543T275 562Q316 562 345 553T399 525V746ZM290 478Q227 478 192 424T158 274Q158 175 190 123T286 71Q333 71 365 101T398 189V435Q377 457 349 467T290 478Z" horiz-adv-x="585" unicode="d"/>
			<glyph d="M287 562Q378 562 429 499T481 319V260H157V245Q157 160 193 115T302 71Q334 71 367 81T432 112L469 39Q435 17 390 2T290 -12Q227 -12 181 9T106 67T62 155T48 266Q48 335 65 390T115 483T190 542T287 562ZM281 485Q253 485 231 473T195 441T171 393T159 334H380V341Q380 409 354 447T281 485Z" horiz-adv-x="529" unicode="e"/>
			<glyph d="M295 772Q326 772 351 769T405 758L379 678Q362 684 342 687T307 690Q262 690 239 663T216 567V550H345L321 470H216V0H111V470H12L36 550H111V564Q111 668 155 720T295 772Z" horiz-adv-x="356" unicode="f"/>
			<glyph d="M298 562Q337 562 371 554T436 533L504 550V42Q504 -84 446 -146T267 -209Q219 -209 175 -199T92 -171L85 -76Q130 -102 174 -113T264 -124Q330 -124 364 -91T399 14V53Q375 34 343 19T264 5Q211 5 170 25T103 81T62 168T48 281Q48 346 66 398T116 486T195 542T298 562ZM310 479Q158 479 158 282Q158 182 190 134T287 87Q311 87 331 94T366 114T389 141T398 171V459Q380 467 356 473T310 479Z" horiz-adv-x="583" unicode="g"/>
			<glyph d="M182 772V488Q217 528 258 545T349 562Q439 562 478 512T517 371V0H412V350Q412 418 392 447T327 476Q304 476 283 469T244 450T210 425T182 398V0H77V746Z" horiz-adv-x="590" unicode="h"/>
			<glyph d="M131 775Q160 775 178 757T196 711Q196 682 178 663T131 644Q103 644 84 663T66 711Q66 739 84 757T131 775ZM182 562V0H77V536Z" horiz-adv-x="260" unicode="i"/>
			<glyph d="M131 775Q160 775 178 757T196 711Q196 682 178 663T131 644Q103 644 84 663T66 711Q66 739 84 757T131 775ZM183 562V30Q183 -18 177 -54T157 -118T116 -168T49 -211L2 -138Q24 -125 39 -111T62 -79T74 -33T78 33V536Z" horiz-adv-x="260" unicode="j"/>
			<glyph d="M182 772V345L376 550H514L285 313L526 0H393L182 282V0H77V746Z" horiz-adv-x="538" unicode="k"/>
			<glyph d="M182 772V0H77V746Z" horiz-adv-x="260" unicode="l"/>
			<glyph d="M178 562V484Q212 524 253 543T339 562Q396 562 431 539T482 472Q520 519 563 540T654 562Q690 562 719 552T768 519T800 461T811 375V0H706V351Q706 416 687 446T627 476Q605 476 582 467T540 441T509 402T497 353V0H392V354Q392 414 374 445T313 476Q290 476 267 466T225 439T195 400T183 353V0H78V537Z" horiz-adv-x="883" unicode="m"/>
			<glyph d="M178 562V485Q214 525 257 543T351 562Q433 562 475 514T518 372V0H413V344Q413 415 392 445T325 476Q300 476 275 466T229 440T196 400T183 350V0H78V537Z" horiz-adv-x="590" unicode="n"/>
			<glyph d="M292 562Q344 562 387 544T463 492T513 404T531 282Q531 213 513 158T463 66T386 8T288 -12Q237 -12 193 5T116 57T66 144T48 266Q48 335 66 389T116 482T193 541T292 562ZM289 479Q256 479 231 463T190 421T166 356T158 274Q158 230 166 193T190 129T231 86T288 71Q321 71 346 86T387 128T412 192T420 274Q420 318 412 355T388 420T347 463T289 479Z" horiz-adv-x="579" unicode="o"/>
			<glyph d="M158 563Q164 552 169 535T176 503Q203 528 240 545T325 562Q426 562 483 488T540 281Q540 213 521 158T471 66T397 8T305 -12Q262 -12 235 0T189 24V-182L84 -209V422Q84 465 78 490T59 538ZM305 480Q269 480 239 462T189 419V174Q189 122 217 97T295 72Q324 72 348 83T391 120T419 185T429 281Q429 379 396 429T305 480Z" horiz-adv-x="588" unicode="p"/>
			<glyph d="M294 562Q333 562 370 554T436 533L504 550V-182L399 -209V45Q372 18 337 3T259 -12Q214 -12 175 5T108 56T64 141T48 261Q48 342 67 399T119 492T197 545T294 562ZM304 479Q234 479 196 428T158 269Q158 178 192 124T289 70Q305 70 324 76T359 96T387 133T398 193V457Q377 469 352 474T304 479Z" horiz-adv-x="581" unicode="q"/>
			<glyph d="M178 562V474Q189 490 202 506T233 534T272 554T321 562Q343 562 363 557L342 464Q326 468 306 468Q280 468 257 457T218 426T191 380T182 323V0H77V536Z" horiz-adv-x="373" unicode="r"/>
			<glyph d="M244 562Q292 562 332 553T406 528L376 448Q345 465 311 474T243 483Q197 483 177 464T157 417Q157 401 162 390T181 369T215 349T266 326Q300 311 328 296T377 261T409 215T421 150Q421 107 406 76T366 26T304 -2T225 -12Q179 -12 138 -4T51 21L78 101Q113 86 149 77T222 68Q321 68 321 144Q321 165 313 180T290 206T255 227T211 248Q168 266 139 283T92 320T67 361T60 414Q60 481 105 521T244 562Z" horiz-adv-x="468" unicode="s"/>
			<glyph d="M207 716V550H342L318 470H207V160Q207 131 210 113T219 86T237 72T264 69Q276 69 291 72T320 82L343 7Q319 -1 289 -6T232 -12Q162 -12 132 22T102 138V470H14L38 550H102V689Z" horiz-adv-x="361" unicode="t"/>
			<glyph d="M178 562V200Q178 133 198 104T267 75Q292 75 317 84T362 109T395 149T408 202V535L513 562V135Q513 93 519 66T540 14L443 -9Q435 4 428 19T415 71Q381 32 339 10T240 -12Q151 -12 112 36T73 178V535Z" horiz-adv-x="593" unicode="u"/>
			<glyph d="M12 550H122L262 133L401 550H498L304 11L216 -12Z" horiz-adv-x="510" unicode="v"/>
			<glyph d="M17 550H123L247 149L359 510L432 531L547 145L681 550H777L588 8L510 -12L393 378L279 9L204 -12Z" horiz-adv-x="794" unicode="w"/>
			<glyph d="M35 550H155L273 359L399 550H509L327 287L516 0H396L265 209L129 0H18L212 279Z" horiz-adv-x="537" unicode="x"/>
			<glyph d="M12 550H122L262 164L399 550H494L305 31Q286 -22 262 -61T209 -130T149 -178T84 -209L42 -139Q65 -129 87 -115T131 -81T173 -33T211 34Z" unicode="y"/>
			<glyph d="M50 550H406V494L148 85H420L393 0H23V74L269 467H24Z" horiz-adv-x="434" unicode="z"/>
			<glyph d="M179 772H270Q231 740 208 694T185 602Q185 576 190 556T203 515T215 469T221 408Q221 361 203 330T162 282Q185 264 203 233T221 154Q221 117 215 91T203 45T190 4T185 -40Q185 -87 208 -132T269 -209H178Q169 -202 152 -186T120 -149T92 -98T81 -34Q81 2 86 24T98 65T109 105T115 160Q115 175 113 192T105 225T91 256T68 282Q98 305 106 339T115 402Q115 436 109 457T98 497T86 538T81 596Q81 629 92 657T118 707T150 746T179 772Z" horiz-adv-x="326" unicode="{"/>
			<glyph d="M77 761H159V-239H77Z" horiz-adv-x="236" unicode="|"/>
			<glyph d="M56 772H148Q160 763 177 746T209 707T235 657T246 596Q246 560 240 538T228 497T216 457T211 402Q211 373 219 339T258 282Q244 271 234 256T220 225T213 192T211 160Q211 126 216 105T228 65T240 24T246 -34Q246 -69 234 -98T206 -149T174 -186T149 -209H57Q95 -177 118 -132T142 -40Q142 -15 136 4T124 45T111 91T106 154Q106 202 124 233T165 282Q140 300 123 330T106 408Q106 444 111 469T124 515T136 556T142 602Q142 649 118 694T56 772Z" horiz-adv-x="326" unicode="}"/>
			<glyph d="M524 453V353Q501 332 470 314T390 297Q358 297 328 307T270 330Q241 343 213 352T155 362Q117 362 88 343T29 296V394Q59 428 95 440T163 452Q199 452 229 442T288 419Q317 407 344 396T399 386Q418 386 435 392T468 408T498 430T524 453Z" horiz-adv-x="552" unicode="~"/>
			<glyph d="" horiz-adv-x="563" unicode=" "/>
			<glyph d="M134 562Q161 562 180 543T199 497Q199 470 180 451T134 432Q107 432 88 451T69 497Q69 524 88 543T134 562ZM188 356V-141L83 -167V329Z" horiz-adv-x="269" unicode="¡"/>
			<glyph d="M337 684H417L390 554Q424 547 457 530L423 450Q395 466 372 471L289 74Q294 73 304 73Q368 73 424 114L464 40Q391 -12 295 -12Q289 -12 283 -12Q277 -12 271 -11L246 -131H166L195 6Q123 34 85 100T48 258Q48 335 66 392T119 487T201 543T307 562H311ZM294 478Q222 471 190 416T158 266Q158 207 171 165T214 100Z" horiz-adv-x="511" unicode="¢"/>
			<glyph d="M340 729Q436 729 516 698L485 612Q453 626 418 634T346 642Q282 642 250 617T219 535Q219 503 228 469T248 397H423L399 324H266Q271 301 273 279T276 232Q276 183 260 146T215 87H533L505 0H65V87H79Q124 87 147 121T170 211Q170 237 165 264T153 324H49L73 397H138Q130 429 121 464T112 529Q112 635 171 682T340 729Z" horiz-adv-x="583" unicode="£"/>
			<glyph d="M91 615L182 524Q232 558 292 558Q321 558 348 549T402 524L494 615L546 562L455 470Q488 419 488 361Q488 303 455 252L546 160L494 106L402 197Q376 180 348 172T292 165Q231 165 182 197L91 106L38 160L129 252Q112 277 104 304T96 361Q96 419 129 470L38 562ZM291 482Q266 482 244 472T206 446T181 408T172 361Q172 336 181 314T206 276T244 250T291 241Q316 241 338 250T377 275T402 313T412 361Q412 408 376 444Q358 463 336 472T291 482Z" horiz-adv-x="584" unicode="¤"/>
			<glyph d="M24 717H139L291 428L452 717H559L355 353H486V278H339V218H485V144H339V0H227V144H90V218H227V278H91V353H216Z" horiz-adv-x="584" unicode="¥"/>
			<glyph d="M77 761H159V411H77ZM77 111H159V-239H77Z" horiz-adv-x="236" unicode="¦"/>
			<glyph d="M276 729Q371 729 453 694L420 613Q353 645 272 645Q221 645 190 627T160 570Q160 555 167 542T191 516T239 489T316 454Q359 436 390 418T442 380T471 336T481 281Q481 198 391 154Q429 133 450 102T471 25Q471 -16 455 -48T409 -102T339 -135T247 -147Q200 -147 156 -140T71 -117L102 -33Q135 -46 170 -54T246 -62Q271 -62 293 -58T332 -46T359 -22T369 14Q369 31 363 43T339 68T291 94T211 129Q164 148 133 166T82 204T55 248T47 303Q47 341 66 373T135 431Q97 454 77 486T57 564Q57 645 115 687T276 729ZM215 388Q148 361 148 315Q148 301 152 290T166 271T195 252T240 229Q255 221 274 213T316 195Q380 222 380 268Q380 282 375 292T360 312T332 332T289 354Q273 362 254 370T215 388Z" horiz-adv-x="527" unicode="§"/>
			<glyph d="M87 742Q110 742 127 725T144 685Q144 662 127 645T87 629Q63 629 46 645T30 685Q30 709 46 725T87 742ZM313 742Q336 742 353 725T370 685Q370 662 353 645T313 629Q289 629 272 645T256 685Q256 709 272 725T313 742Z" horiz-adv-x="400" unicode="¨"/>
			<glyph d="M415 718Q495 718 563 690T680 613T757 496T785 348Q785 268 757 200T680 82T563 5T415 -22Q335 -22 267 5T149 82T72 200T45 348Q45 428 72 496T149 613T267 690T415 718ZM415 646Q351 646 296 623T202 561T139 467T117 349Q117 284 139 229T202 135T296 72T415 50Q479 50 534 72T629 135T691 229T714 349Q714 413 691 467T629 561T534 623T415 646ZM432 551Q493 551 549 525L525 461Q480 484 435 484Q375 484 342 449T309 346Q309 277 340 244T428 211Q451 211 475 218T532 242L559 184Q523 161 488 153T417 145Q372 145 336 159T277 198T240 260T228 339Q228 394 243 434T285 500T349 538T432 551Z" horiz-adv-x="830" unicode="©"/>
			<glyph d="M176 729Q202 729 223 724T261 706T285 671T294 617V483Q294 460 298 445T312 414L245 398Q240 406 235 415T227 434Q180 396 128 396Q83 396 57 420T32 489Q32 526 51 547T99 581T161 600T221 611V623Q221 652 208 663T168 675Q142 675 119 667T69 642L44 689Q105 729 176 729ZM221 561L171 551Q135 543 120 528T106 489Q106 449 147 449Q182 449 221 483Z" horiz-adv-x="341" unicode="ª"/>
			<glyph d="M296 550H414L155 274L414 0H296L36 274ZM537 550H655L396 274L655 0H537L278 274Z" horiz-adv-x="672" unicode="«"/>
			<glyph d="M39 504H467V247H384V422H39Z" unicode="¬"/>
			<glyph d="M415 718Q495 718 563 690T680 613T757 496T785 348Q785 268 757 200T680 82T563 5T415 -22Q335 -22 267 5T149 82T72 200T45 348Q45 428 72 496T149 613T267 690T415 718ZM415 646Q351 646 296 623T202 561T139 467T117 349Q117 284 139 229T202 135T296 72T415 50Q479 50 534 72T629 135T691 229T714 349Q714 413 691 467T629 561T534 623T415 646ZM388 545Q417 545 446 541T498 526T536 494T551 439Q551 391 524 363T459 323L573 149H490L388 310Q382 309 371 308T353 308V149H281V540Q307 542 333 543T388 545ZM369 486Q362 486 354 485V363Q376 364 397 367T435 379T462 400T473 434Q473 466 447 476T387 486Q377 486 369 486Z" horiz-adv-x="830" unicode="®"/>
			<glyph d="M30 734H382V659H30Z" horiz-adv-x="412" unicode="¯"/>
			<glyph d="M206 729Q236 729 263 717T309 686T340 640T352 584Q352 554 340 527T309 481T263 449T206 438Q176 438 149 449T103 481T71 527T60 584Q60 614 71 640T102 686T149 717T206 729ZM206 660Q175 660 152 638T130 584Q130 553 152 530T206 508Q238 508 260 530T282 584Q282 616 260 638T206 660Z" horiz-adv-x="410" unicode="°"/>
			<glyph d="M212 593H295V420H467V337H295V165H212V337H39V420H212ZM39 83H467V0H39Z" unicode="±"/>
			<glyph d="M240 729Q269 729 294 723T338 704T367 672T378 624Q378 603 370 583T344 543T299 499T233 447Q221 438 208 428T183 411H388V345H64V390L168 473Q204 501 228 521T267 558T288 587T295 616Q295 638 278 650T232 662Q199 662 163 651T98 624L72 686Q107 705 151 717T240 729Z" horiz-adv-x="442" unicode="²"/>
			<glyph d="M215 729Q286 729 324 706T363 636Q363 607 347 585T291 548Q381 530 381 458Q381 433 370 411T337 373T277 347T189 338Q156 338 124 342T61 356L81 421Q108 412 135 408T192 404Q254 404 277 419T301 459Q301 488 274 500T181 512H119L136 573H188Q243 573 264 587T286 622Q286 664 206 664Q178 664 148 656T91 636L66 698Q97 712 135 720T215 729Z" horiz-adv-x="442" unicode="³"/>
			<glyph d="M163 766H310L119 627H30Z" horiz-adv-x="340" unicode="´"/>
			<glyph d="M182 562V200Q182 133 202 104T271 75Q296 75 321 84T366 109T399 149T412 202V535L517 562V135Q517 93 523 66T544 14L447 -9Q439 4 432 19T419 71Q389 32 351 10T263 -12Q213 -12 182 16V-181L77 -209V535Z" horiz-adv-x="598" unicode="µ"/>
			<glyph d="M259 717H568V620H499V-200H406V620H310V-200H216V303Q166 307 129 325T69 371T33 434T21 507Q21 562 38 601T87 666T163 704T259 717Z" horiz-adv-x="580" unicode="¶"/>
			<glyph d="M128 427Q156 427 176 407T197 359Q197 331 176 311T128 291Q100 291 80 311T60 359Q60 388 80 407T128 427Z" horiz-adv-x="258" unicode="·"/>
			<glyph d="M116 6H186L164 -48Q177 -50 191 -55T218 -69T239 -92T247 -127Q247 -172 215 -196T113 -220Q94 -220 72 -216T30 -207L36 -145Q57 -152 75 -155T111 -159Q135 -159 151 -152T167 -125Q167 -104 143 -97T80 -89Z" horiz-adv-x="277" unicode="¸"/>
			<glyph d="M238 729H276V344H203V650L111 626L98 689Z" horiz-adv-x="442" unicode="¹"/>
			<glyph d="M186 729Q255 729 298 688T342 568Q342 529 330 497T297 442T247 408T186 396Q154 396 125 405T76 434T42 484T30 556Q30 596 42 628T75 682T124 717T186 729ZM187 672Q145 672 125 640T106 562Q106 515 125 484T186 453Q224 453 245 483T266 563Q266 611 246 641T187 672Z" horiz-adv-x="372" unicode="º"/>
			<glyph d="M16 550H134L394 276L134 0H16L276 276ZM258 550H376L636 276L376 0H258L517 276Z" horiz-adv-x="672" unicode="»"/>
			<glyph d="M238 729H276V338H203V650L111 625L98 688ZM606 729H690L282 -12H197ZM720 390H790V151H863V86H790V0H715V86H480V139ZM715 298L575 151H715Z" horiz-adv-x="909" unicode="¼"/>
			<glyph d="M238 729H276V338H203V650L111 625L98 688ZM596 729H680L272 -12H187ZM707 390Q736 390 761 384T805 365T834 332T845 283Q845 261 837 241T811 200T766 155T700 102Q688 93 675 83T650 66H855V0H531V45Q557 67 583 87T635 128Q671 157 695 178T734 215T755 246T762 276Q762 298 745 310T699 323Q666 323 630 312T565 284L539 346Q574 365 618 377T707 390Z" horiz-adv-x="909" unicode="½"/>
			<glyph d="M215 729Q286 729 324 705T363 634Q363 605 347 582T291 545Q381 527 381 453Q381 428 370 406T337 367T277 341T189 332Q156 332 124 335T61 350L81 415Q108 405 135 401T192 398Q254 398 277 414T301 454Q301 484 274 496T181 508H119L136 569H188Q243 569 264 584T286 621Q286 664 206 664Q178 664 148 656T91 635L66 697Q97 711 135 720T215 729ZM623 729H707L299 -12H214ZM720 390H790V151H863V86H790V0H715V86H480V139ZM715 298L575 151H715Z" horiz-adv-x="909" unicode="¾"/>
			<glyph d="M294 562Q322 562 341 543T361 497Q361 469 341 449T294 430Q267 430 248 449T229 497Q229 524 248 543T294 562ZM348 360V164H320Q243 164 201 124T160 19Q160 -93 275 -93Q312 -93 346 -82T406 -54L443 -128Q408 -150 361 -164T262 -178Q166 -178 108 -129T50 17Q50 61 62 99T99 166T163 215T255 242V337Z" horiz-adv-x="463" unicode="¿"/>
			<glyph d="M396 729L666 0H553L476 213H207L126 0H20L295 705ZM345 574L241 299H444ZM158 894H305L438 755H349Z" horiz-adv-x="686" unicode="À"/>
			<glyph d="M396 729L666 0H553L476 213H207L126 0H20L295 705ZM345 574L241 299H444ZM371 894H518L327 755H238Z" horiz-adv-x="686" unicode="Á"/>
			<glyph d="M396 729L666 0H553L476 213H207L126 0H20L295 705ZM345 574L241 299H444ZM294 894H392L535 755H449L342 839L237 755H150Z" horiz-adv-x="686" unicode="Â"/>
			<glyph d="M396 729L666 0H553L476 213H207L126 0H20L295 705ZM345 574L241 299H444ZM451 878H518Q518 841 509 817T486 780T455 760T424 755Q400 755 380 762T337 784Q322 794 306 803T274 812Q254 812 244 797T235 755H167Q167 790 176 813T199 851T230 871T262 877Q288 877 307 869T346 849Q360 841 378 831T410 821Q450 821 451 878Z" horiz-adv-x="686" unicode="Ã"/>
			<glyph d="M396 729L666 0H553L476 213H207L126 0H20L295 705ZM345 574L241 299H444ZM230 870Q253 870 270 853T287 813Q287 790 270 773T230 757Q206 757 189 773T173 813Q173 837 189 853T230 870ZM456 870Q479 870 496 853T513 813Q513 790 496 773T456 757Q432 757 415 773T399 813Q399 837 415 853T456 870Z" horiz-adv-x="686" unicode="Ä"/>
			<glyph d="M396 729L666 0H553L476 213H207L126 0H20L295 705ZM345 574L241 299H444ZM343 1001Q368 1001 390 991T430 964T456 925T466 878Q466 853 456 830T430 791T390 765T343 756Q318 756 295 765T256 791T230 830T221 878Q221 903 230 925T256 964T295 991T343 1001ZM343 940Q317 940 299 922T281 878Q281 852 299 833T343 815Q369 815 387 833T406 878Q406 904 387 922T343 940Z" horiz-adv-x="686" unicode="Å"/>
			<glyph d="M405 717H851L823 631H555V416H795L768 330H555V87H865V0H443V188H230L130 0H16ZM443 585L278 274H443Z" horiz-adv-x="893" unicode="Æ"/>
			<glyph d="M400 729Q457 729 504 719T594 691L560 602Q525 621 484 630T401 640Q295 640 232 569T170 353Q170 219 225 148T389 78Q436 78 480 91T572 132L611 49Q558 17 504 3T390 -12L375 -48Q388 -50 402 -55T429 -69T450 -92T458 -127Q458 -172 426 -196T324 -220Q305 -220 283 -216T241 -207L247 -145Q268 -152 286 -155T322 -159Q346 -159 362 -152T378 -125Q378 -104 354 -97T291 -89L321 -9Q253 0 202 29T118 104T67 210T51 342Q51 436 75 508T145 630T254 704T400 729Z" horiz-adv-x="642" unicode="Ç"/>
			<glyph d="M86 717H494L466 631H198V417H437L411 331H198V87H508V0H86ZM83 894H230L363 755H274Z" horiz-adv-x="536" unicode="È"/>
			<glyph d="M86 717H494L466 631H198V417H437L411 331H198V87H508V0H86ZM297 894H444L253 755H164Z" horiz-adv-x="536" unicode="É"/>
			<glyph d="M86 717H494L466 631H198V417H437L411 331H198V87H508V0H86ZM219 894H317L460 755H374L267 839L162 755H75Z" horiz-adv-x="536" unicode="Ê"/>
			<glyph d="M86 717H494L466 631H198V417H437L411 331H198V87H508V0H86ZM155 870Q178 870 195 853T212 813Q212 790 195 773T155 757Q131 757 114 773T98 813Q98 837 114 853T155 870ZM381 870Q404 870 421 853T438 813Q438 790 421 773T381 757Q357 757 340 773T324 813Q324 837 340 853T381 870Z" horiz-adv-x="536" unicode="Ë"/>
			<glyph d="M86 717H198V0H86ZM-44 894H103L236 755H147Z" horiz-adv-x="284" unicode="Ì"/>
			<glyph d="M86 717H198V0H86ZM170 894H317L126 755H37Z" horiz-adv-x="284" unicode="Í"/>
			<glyph d="M86 717H198V0H86ZM93 894H191L334 755H248L141 839L36 755H-51Z" horiz-adv-x="284" unicode="Î"/>
			<glyph d="M86 717H198V0H86ZM29 870Q52 870 69 853T86 813Q86 790 69 773T29 757Q5 757 -11 773T-28 813Q-28 837 -11 853T29 870ZM255 870Q278 870 295 853T312 813Q312 790 295 773T255 757Q231 757 214 773T198 813Q198 837 214 853T255 870Z" horiz-adv-x="284" unicode="Ï"/>
			<glyph d="M305 723Q388 723 454 701T567 637T638 532T663 385Q663 271 633 196T549 76T418 12T249 -6Q232 -6 211 -5T169 -4T126 -3T86 0V314H5V397H86V715Q138 720 196 721T305 723ZM283 637Q264 637 241 636T198 633V397H374V314H198V84Q229 81 261 81Q328 81 380 96T469 146T525 236T545 370Q545 448 526 499T472 581T389 624T283 637Z" horiz-adv-x="714" unicode="Ð"/>
			<glyph d="M203 729L526 198V717H624V10L536 -12L184 561V0H86V701ZM463 878H530Q530 841 521 817T498 780T467 760T436 755Q412 755 392 762T349 784Q334 794 318 803T286 812Q266 812 256 797T247 755H179Q179 790 188 813T211 851T242 871T274 877Q300 877 319 869T358 849Q372 841 390 831T422 821Q462 821 463 878Z" horiz-adv-x="710" unicode="Ñ"/>
			<glyph d="M384 729Q463 729 521 702T618 627T676 515T695 376Q695 296 674 225T611 102T508 19T364 -12Q287 -12 228 14T130 87T71 198T51 338Q51 420 72 491T135 615T239 698T384 729ZM378 640Q322 640 282 615T217 551T180 459T169 353Q169 222 219 149T367 77Q421 77 461 100T526 163T564 253T577 362Q577 413 567 463T535 552T473 616T378 640ZM188 894H335L468 755H379Z" horiz-adv-x="746" unicode="Ò"/>
			<glyph d="M384 729Q463 729 521 702T618 627T676 515T695 376Q695 296 674 225T611 102T508 19T364 -12Q287 -12 228 14T130 87T71 198T51 338Q51 420 72 491T135 615T239 698T384 729ZM378 640Q322 640 282 615T217 551T180 459T169 353Q169 222 219 149T367 77Q421 77 461 100T526 163T564 253T577 362Q577 413 567 463T535 552T473 616T378 640ZM402 894H549L358 755H269Z" horiz-adv-x="746" unicode="Ó"/>
			<glyph d="M384 729Q463 729 521 702T618 627T676 515T695 376Q695 296 674 225T611 102T508 19T364 -12Q287 -12 228 14T130 87T71 198T51 338Q51 420 72 491T135 615T239 698T384 729ZM378 640Q322 640 282 615T217 551T180 459T169 353Q169 222 219 149T367 77Q421 77 461 100T526 163T564 253T577 362Q577 413 567 463T535 552T473 616T378 640ZM325 894H423L566 755H480L373 839L268 755H181Z" horiz-adv-x="746" unicode="Ô"/>
			<glyph d="M384 729Q463 729 521 702T618 627T676 515T695 376Q695 296 674 225T611 102T508 19T364 -12Q287 -12 228 14T130 87T71 198T51 338Q51 420 72 491T135 615T239 698T384 729ZM378 640Q322 640 282 615T217 551T180 459T169 353Q169 222 219 149T367 77Q421 77 461 100T526 163T564 253T577 362Q577 413 567 463T535 552T473 616T378 640ZM482 878H549Q549 841 540 817T517 780T486 760T455 755Q431 755 411 762T368 784Q353 794 337 803T305 812Q285 812 275 797T266 755H198Q198 790 207 813T230 851T261 871T293 877Q319 877 338 869T377 849Q391 841 409 831T441 821Q481 821 482 878Z" horiz-adv-x="746" unicode="Õ"/>
			<glyph d="M384 729Q463 729 521 702T618 627T676 515T695 376Q695 296 674 225T611 102T508 19T364 -12Q287 -12 228 14T130 87T71 198T51 338Q51 420 72 491T135 615T239 698T384 729ZM378 640Q322 640 282 615T217 551T180 459T169 353Q169 222 219 149T367 77Q421 77 461 100T526 163T564 253T577 362Q577 413 567 463T535 552T473 616T378 640ZM261 870Q284 870 301 853T318 813Q318 790 301 773T261 757Q237 757 220 773T204 813Q204 837 220 853T261 870ZM487 870Q510 870 527 853T544 813Q544 790 527 773T487 757Q463 757 446 773T430 813Q430 837 446 853T487 870Z" horiz-adv-x="746" unicode="Ö"/>
			<glyph d="M101 585L253 433L404 584L462 526L311 374L462 223L404 165L253 317L102 166L43 224L195 375L43 527Z" unicode="×"/>
			<glyph d="M384 718Q447 718 496 701T581 653L638 718L696 663L636 594Q666 549 680 492T695 370Q695 292 674 222T611 101T508 18T364 -12Q302 -12 253 4T166 52L110 -12L51 43L111 111Q81 155 66 211T51 333Q51 412 72 482T135 605T239 687T384 718ZM378 629Q322 629 282 605T217 541T180 451T169 348Q169 306 175 271T193 207L512 573Q489 599 456 614T378 629ZM553 498L235 131Q286 77 368 77Q422 77 461 100T526 161T564 249T577 356Q577 394 572 430T553 498Z" horiz-adv-x="746" unicode="Ø"/>
			<glyph d="M81 717H193V285Q193 239 199 200T221 134T268 92T347 77Q396 77 426 91T474 132T497 197T504 283V717H609V279Q609 130 547 59T343 -12Q275 -12 225 3T144 53T96 143T81 279ZM153 894H300L433 755H344Z" horiz-adv-x="689" unicode="Ù"/>
			<glyph d="M81 717H193V285Q193 239 199 200T221 134T268 92T347 77Q396 77 426 91T474 132T497 197T504 283V717H609V279Q609 130 547 59T343 -12Q275 -12 225 3T144 53T96 143T81 279ZM367 894H514L323 755H234Z" horiz-adv-x="689" unicode="Ú"/>
			<glyph d="M81 717H193V285Q193 239 199 200T221 134T268 92T347 77Q396 77 426 91T474 132T497 197T504 283V717H609V279Q609 130 547 59T343 -12Q275 -12 225 3T144 53T96 143T81 279ZM289 894H387L530 755H444L337 839L232 755H145Z" horiz-adv-x="689" unicode="Û"/>
			<glyph d="M81 717H193V285Q193 239 199 200T221 134T268 92T347 77Q396 77 426 91T474 132T497 197T504 283V717H609V279Q609 130 547 59T343 -12Q275 -12 225 3T144 53T96 143T81 279ZM225 870Q248 870 265 853T282 813Q282 790 265 773T225 757Q201 757 184 773T168 813Q168 837 184 853T225 870ZM451 870Q474 870 491 853T508 813Q508 790 491 773T451 757Q427 757 410 773T394 813Q394 837 410 853T451 870Z" horiz-adv-x="689" unicode="Ü"/>
			<glyph d="M21 717H146L306 413L478 717H593L354 312V0H242V311ZM334 894H481L290 755H201Z" horiz-adv-x="611" unicode="Ý"/>
			<glyph d="M86 717H198V570Q215 571 230 571Q245 571 259 571Q314 571 365 563T455 535T519 478T543 383Q543 316 513 270T435 194T325 151T198 137V0H86ZM230 487T198 486V222Q237 223 277 230T349 255T402 300T423 372Q423 407 410 429T376 464T324 482T260 487Q246 487 230 487Z" horiz-adv-x="574" unicode="Þ"/>
			<glyph d="M322 772Q364 772 398 763T457 736T495 691T509 628Q509 592 493 564T446 502Q420 473 408 454T397 412Q397 396 403 384T422 363T456 342T507 317Q541 301 566 284T609 248T635 204T644 149Q644 106 629 75T588 25T527 -3T454 -12Q408 -12 366 -4T286 20L318 101Q385 70 452 70Q490 70 514 85T539 137Q539 153 533 165T515 187T484 208T439 230Q397 249 369 266T324 301T301 340T294 391Q294 440 315 474T361 538Q384 566 393 584T403 626Q403 657 381 675T318 693Q264 693 240 660T216 563V0H111V476H12L36 550H111V555Q111 661 161 716T322 772Z" horiz-adv-x="671" unicode="ß"/>
			<glyph d="M272 562Q314 562 348 552T407 521T444 463T457 373V133Q457 96 464 66T483 15L388 -8Q380 3 371 22T361 58Q322 20 284 4T202 -12Q125 -12 86 31T48 145Q48 217 92 262T225 325L352 349V377Q352 435 329 459T261 483Q219 483 181 468T110 428L70 498Q104 523 156 542T272 562ZM350 278L266 261Q204 248 179 218T155 143Q155 106 173 85T226 65Q256 65 287 81T350 129ZM72 766H219L352 627H263Z" horiz-adv-x="534" unicode="à"/>
			<glyph d="M272 562Q314 562 348 552T407 521T444 463T457 373V133Q457 96 464 66T483 15L388 -8Q380 3 371 22T361 58Q322 20 284 4T202 -12Q125 -12 86 31T48 145Q48 217 92 262T225 325L352 349V377Q352 435 329 459T261 483Q219 483 181 468T110 428L70 498Q104 523 156 542T272 562ZM350 278L266 261Q204 248 179 218T155 143Q155 106 173 85T226 65Q256 65 287 81T350 129ZM295 766H442L251 627H162Z" horiz-adv-x="534" unicode="á"/>
			<glyph d="M272 562Q314 562 348 552T407 521T444 463T457 373V133Q457 96 464 66T483 15L388 -8Q380 3 371 22T361 58Q322 20 284 4T202 -12Q125 -12 86 31T48 145Q48 217 92 262T225 325L352 349V377Q352 435 329 459T261 483Q219 483 181 468T110 428L70 498Q104 523 156 542T272 562ZM350 278L266 261Q204 248 179 218T155 143Q155 106 173 85T226 65Q256 65 287 81T350 129ZM209 766H307L450 627H364L257 711L152 627H65Z" horiz-adv-x="534" unicode="â"/>
			<glyph d="M272 562Q314 562 348 552T407 521T444 463T457 373V133Q457 96 464 66T483 15L388 -8Q380 3 371 22T361 58Q322 20 284 4T202 -12Q125 -12 86 31T48 145Q48 217 92 262T225 325L352 349V377Q352 435 329 459T261 483Q219 483 181 468T110 428L70 498Q104 523 156 542T272 562ZM350 278L266 261Q204 248 179 218T155 143Q155 106 173 85T226 65Q256 65 287 81T350 129ZM366 750H433Q433 713 424 689T401 652T370 632T339 627Q315 627 295 634T252 656Q237 666 221 675T189 684Q169 684 159 669T150 627H82Q82 662 91 685T114 723T145 743T177 749Q203 749 222 741T261 721Q275 713 293 703T325 693Q365 693 366 750Z" horiz-adv-x="534" unicode="ã"/>
			<glyph d="M272 562Q314 562 348 552T407 521T444 463T457 373V133Q457 96 464 66T483 15L388 -8Q380 3 371 22T361 58Q322 20 284 4T202 -12Q125 -12 86 31T48 145Q48 217 92 262T225 325L352 349V377Q352 435 329 459T261 483Q219 483 181 468T110 428L70 498Q104 523 156 542T272 562ZM350 278L266 261Q204 248 179 218T155 143Q155 106 173 85T226 65Q256 65 287 81T350 129ZM145 742Q168 742 185 725T202 685Q202 662 185 645T145 629Q121 629 104 645T88 685Q88 709 104 725T145 742ZM371 742Q394 742 411 725T428 685Q428 662 411 645T371 629Q347 629 330 645T314 685Q314 709 330 725T371 742Z" horiz-adv-x="534" unicode="ä"/>
			<glyph d="M272 562Q314 562 348 552T407 521T444 463T457 373V133Q457 96 464 66T483 15L388 -8Q380 3 371 22T361 58Q322 20 284 4T202 -12Q125 -12 86 31T48 145Q48 217 92 262T225 325L352 349V377Q352 435 329 459T261 483Q219 483 181 468T110 428L70 498Q104 523 156 542T272 562ZM350 278L266 261Q204 248 179 218T155 143Q155 106 173 85T226 65Q256 65 287 81T350 129ZM257 873Q282 873 304 863T344 836T370 797T380 750Q380 725 370 702T344 663T304 637T257 628Q232 628 209 637T170 663T144 702T135 750Q135 775 144 797T170 836T209 863T257 873ZM257 812Q231 812 213 794T195 750Q195 724 213 705T257 687Q283 687 301 705T320 750Q320 776 301 794T257 812Z" horiz-adv-x="534" unicode="å"/>
			<glyph d="M272 562Q325 562 365 543T427 477Q491 562 587 562Q678 562 729 499T781 319V260H457V245Q457 163 493 117T602 71Q633 71 666 80T732 112L769 39Q735 16 690 2T590 -12Q520 -12 471 15T394 90Q353 42 305 15T202 -12Q163 -12 134 0T86 32T57 82T48 145Q48 289 224 327L352 355V385Q352 439 329 461T261 483Q219 483 181 467T110 426L70 495Q103 519 155 540T272 562ZM581 485Q553 485 531 472T494 439T470 390T459 334H680V337Q680 409 654 447T581 485ZM350 283L266 263Q204 248 179 216T155 143Q155 107 172 86T226 65Q257 65 292 85T366 149Q358 170 354 198T350 253Z" horiz-adv-x="829" unicode="æ"/>
			<glyph d="M306 562Q348 562 387 553T457 530L423 450Q395 464 367 471T308 479Q227 479 192 423T158 266Q158 179 192 126T299 74Q331 74 362 85T423 116L465 39Q435 19 401 6T323 -11L308 -48Q321 -50 335 -55T362 -69T383 -92T391 -127Q391 -172 359 -196T257 -220Q238 -220 216 -216T174 -207L180 -145Q201 -152 219 -155T255 -159Q279 -159 295 -152T311 -125Q311 -104 287 -97T224 -89L254 -10Q207 -4 169 17T104 72T62 153T48 258Q48 339 67 397T120 491T202 545T306 562Z" horiz-adv-x="511" unicode="ç"/>
			<glyph d="M287 562Q378 562 429 499T481 319V260H157V245Q157 160 193 115T302 71Q334 71 367 81T432 112L469 39Q435 17 390 2T290 -12Q227 -12 181 9T106 67T62 155T48 266Q48 335 65 390T115 483T190 542T287 562ZM281 485Q253 485 231 473T195 441T171 393T159 334H380V341Q380 409 354 447T281 485ZM79 766H226L359 627H270Z" horiz-adv-x="529" unicode="è"/>
			<glyph d="M287 562Q378 562 429 499T481 319V260H157V245Q157 160 193 115T302 71Q334 71 367 81T432 112L469 39Q435 17 390 2T290 -12Q227 -12 181 9T106 67T62 155T48 266Q48 335 65 390T115 483T190 542T287 562ZM281 485Q253 485 231 473T195 441T171 393T159 334H380V341Q380 409 354 447T281 485ZM302 766H449L258 627H169Z" horiz-adv-x="529" unicode="é"/>
			<glyph d="M287 562Q378 562 429 499T481 319V260H157V245Q157 160 193 115T302 71Q334 71 367 81T432 112L469 39Q435 17 390 2T290 -12Q227 -12 181 9T106 67T62 155T48 266Q48 335 65 390T115 483T190 542T287 562ZM281 485Q253 485 231 473T195 441T171 393T159 334H380V341Q380 409 354 447T281 485ZM215 766H313L456 627H370L263 711L158 627H71Z" horiz-adv-x="529" unicode="ê"/>
			<glyph d="M287 562Q378 562 429 499T481 319V260H157V245Q157 160 193 115T302 71Q334 71 367 81T432 112L469 39Q435 17 390 2T290 -12Q227 -12 181 9T106 67T62 155T48 266Q48 335 65 390T115 483T190 542T287 562ZM281 485Q253 485 231 473T195 441T171 393T159 334H380V341Q380 409 354 447T281 485ZM151 742Q174 742 191 725T208 685Q208 662 191 645T151 629Q127 629 110 645T94 685Q94 709 110 725T151 742ZM377 742Q400 742 417 725T434 685Q434 662 417 645T377 629Q353 629 336 645T320 685Q320 709 336 725T377 742Z" horiz-adv-x="529" unicode="ë"/>
			<glyph d="M182 562V0H77V536ZM-56 766H91L224 627H135Z" horiz-adv-x="260" unicode="ì"/>
			<glyph d="M182 562V0H77V536ZM167 766H314L123 627H34Z" horiz-adv-x="260" unicode="í"/>
			<glyph d="M182 562V0H77V536ZM81 766H179L322 627H236L129 711L24 627H-63Z" horiz-adv-x="260" unicode="î"/>
			<glyph d="M182 562V0H77V536ZM17 742Q40 742 57 725T74 685Q74 662 57 645T17 629Q-7 629 -23 645T-40 685Q-40 709 -23 725T17 742ZM243 742Q266 742 283 725T300 685Q300 662 283 645T243 629Q219 629 202 645T186 685Q186 709 202 725T243 742Z" horiz-adv-x="260" unicode="ï"/>
			<glyph d="M425 774L449 707L385 682Q454 592 492 493T531 279Q531 211 512 157T462 65T385 7T290 -13Q237 -13 192 4T116 56T66 144T48 268Q48 335 66 389T114 480T186 537T276 557Q344 557 389 515Q359 585 301 655L175 607L151 674L255 714Q228 746 200 772H309Q323 757 337 741ZM289 474Q255 474 230 459T190 417T166 352T158 271Q158 227 166 190T190 126T230 85T288 70Q322 70 346 84T387 125T412 189T420 271Q420 316 412 353T388 417T347 459T289 474Z" horiz-adv-x="579" unicode="ð"/>
			<glyph d="M178 562V485Q214 525 257 543T351 562Q433 562 475 514T518 372V0H413V344Q413 415 392 445T325 476Q300 476 275 466T229 440T196 400T183 350V0H78V537ZM404 750H471Q471 713 462 689T439 652T408 632T377 627Q353 627 333 634T290 656Q275 666 259 675T227 684Q207 684 197 669T188 627H120Q120 662 129 685T152 723T183 743T215 749Q241 749 260 741T299 721Q313 713 331 703T363 693Q403 693 404 750Z" horiz-adv-x="590" unicode="ñ"/>
			<glyph d="M292 562Q344 562 387 544T463 492T513 404T531 282Q531 213 513 158T463 66T386 8T288 -12Q237 -12 193 5T116 57T66 144T48 266Q48 335 66 389T116 482T193 541T292 562ZM289 479Q256 479 231 463T190 421T166 356T158 274Q158 230 166 193T190 129T231 86T288 71Q321 71 346 86T387 128T412 192T420 274Q420 318 412 355T388 420T347 463T289 479ZM105 766H252L385 627H296Z" horiz-adv-x="579" unicode="ò"/>
			<glyph d="M292 562Q344 562 387 544T463 492T513 404T531 282Q531 213 513 158T463 66T386 8T288 -12Q237 -12 193 5T116 57T66 144T48 266Q48 335 66 389T116 482T193 541T292 562ZM289 479Q256 479 231 463T190 421T166 356T158 274Q158 230 166 193T190 129T231 86T288 71Q321 71 346 86T387 128T412 192T420 274Q420 318 412 355T388 420T347 463T289 479ZM328 766H475L284 627H195Z" horiz-adv-x="579" unicode="ó"/>
			<glyph d="M292 562Q344 562 387 544T463 492T513 404T531 282Q531 213 513 158T463 66T386 8T288 -12Q237 -12 193 5T116 57T66 144T48 266Q48 335 66 389T116 482T193 541T292 562ZM289 479Q256 479 231 463T190 421T166 356T158 274Q158 230 166 193T190 129T231 86T288 71Q321 71 346 86T387 128T412 192T420 274Q420 318 412 355T388 420T347 463T289 479ZM241 766H339L482 627H396L289 711L184 627H97Z" horiz-adv-x="579" unicode="ô"/>
			<glyph d="M292 562Q344 562 387 544T463 492T513 404T531 282Q531 213 513 158T463 66T386 8T288 -12Q237 -12 193 5T116 57T66 144T48 266Q48 335 66 389T116 482T193 541T292 562ZM289 479Q256 479 231 463T190 421T166 356T158 274Q158 230 166 193T190 129T231 86T288 71Q321 71 346 86T387 128T412 192T420 274Q420 318 412 355T388 420T347 463T289 479ZM398 750H465Q465 713 456 689T433 652T402 632T371 627Q347 627 327 634T284 656Q269 666 253 675T221 684Q201 684 191 669T182 627H114Q114 662 123 685T146 723T177 743T209 749Q235 749 254 741T293 721Q307 713 325 703T357 693Q397 693 398 750Z" horiz-adv-x="579" unicode="õ"/>
			<glyph d="M292 562Q344 562 387 544T463 492T513 404T531 282Q531 213 513 158T463 66T386 8T288 -12Q237 -12 193 5T116 57T66 144T48 266Q48 335 66 389T116 482T193 541T292 562ZM289 479Q256 479 231 463T190 421T166 356T158 274Q158 230 166 193T190 129T231 86T288 71Q321 71 346 86T387 128T412 192T420 274Q420 318 412 355T388 420T347 463T289 479ZM177 742Q200 742 217 725T234 685Q234 662 217 645T177 629Q153 629 136 645T120 685Q120 709 136 725T177 742ZM403 742Q426 742 443 725T460 685Q460 662 443 645T403 629Q379 629 362 645T346 685Q346 709 362 725T403 742Z" horiz-adv-x="579" unicode="ö"/>
			<glyph d="M252 594Q277 594 295 576T313 533Q313 508 295 490T252 473Q227 473 209 490T192 533Q192 558 209 576T252 594ZM39 416H467V333H39ZM252 279Q277 279 295 261T313 218Q313 193 295 175T252 158Q227 158 209 175T192 218Q192 243 209 261T252 279Z" unicode="÷"/>
			<glyph d="M292 562Q377 562 438 512L477 562L529 515L488 461Q508 427 519 382T531 282Q531 213 513 158T463 66T386 8T288 -12Q202 -12 143 38L103 -13L51 34L93 88Q48 156 48 266Q48 335 66 389T116 482T193 541T292 562ZM289 479Q256 479 231 463T190 421T166 356T158 274Q158 219 170 180L374 438Q359 458 338 468T289 479ZM409 369L205 112Q220 92 240 81T289 71Q322 71 347 86T388 128T413 192T421 274Q421 328 409 369Z" horiz-adv-x="579" unicode="ø"/>
			<glyph d="M178 562V200Q178 133 198 104T267 75Q292 75 317 84T362 109T395 149T408 202V535L513 562V135Q513 93 519 66T540 14L443 -9Q435 4 428 19T415 71Q381 32 339 10T240 -12Q151 -12 112 36T73 178V535ZM110 766H257L390 627H301Z" horiz-adv-x="593" unicode="ù"/>
			<glyph d="M178 562V200Q178 133 198 104T267 75Q292 75 317 84T362 109T395 149T408 202V535L513 562V135Q513 93 519 66T540 14L443 -9Q435 4 428 19T415 71Q381 32 339 10T240 -12Q151 -12 112 36T73 178V535ZM333 766H480L289 627H200Z" horiz-adv-x="593" unicode="ú"/>
			<glyph d="M178 562V200Q178 133 198 104T267 75Q292 75 317 84T362 109T395 149T408 202V535L513 562V135Q513 93 519 66T540 14L443 -9Q435 4 428 19T415 71Q381 32 339 10T240 -12Q151 -12 112 36T73 178V535ZM247 766H345L488 627H402L295 711L190 627H103Z" horiz-adv-x="593" unicode="û"/>
			<glyph d="M178 562V200Q178 133 198 104T267 75Q292 75 317 84T362 109T395 149T408 202V535L513 562V135Q513 93 519 66T540 14L443 -9Q435 4 428 19T415 71Q381 32 339 10T240 -12Q151 -12 112 36T73 178V535ZM183 742Q206 742 223 725T240 685Q240 662 223 645T183 629Q159 629 142 645T126 685Q126 709 142 725T183 742ZM409 742Q432 742 449 725T466 685Q466 662 449 645T409 629Q385 629 368 645T352 685Q352 709 368 725T409 742Z" horiz-adv-x="593" unicode="ü"/>
			<glyph d="M12 550H122L262 164L399 550H494L305 31Q286 -22 262 -61T209 -130T149 -178T84 -209L42 -139Q65 -129 87 -115T131 -81T173 -33T211 34ZM291 766H438L247 627H158Z" unicode="ý"/>
			<glyph d="M182 772V507Q208 530 241 546T318 562Q419 562 476 488T533 281Q533 213 514 158T464 66T390 8T299 -12Q255 -12 228 2T182 30V-182L77 -209V746ZM298 480Q262 480 232 460T182 413V180Q182 123 211 97T288 72Q317 72 341 83T384 120T412 185T422 281Q422 379 389 429T298 480Z" horiz-adv-x="576" unicode="þ"/>
			<glyph d="M12 550H122L262 164L399 550H494L305 31Q286 -22 262 -61T209 -130T149 -178T84 -209L42 -139Q65 -129 87 -115T131 -81T173 -33T211 34ZM140 742Q163 742 180 725T197 685Q197 662 180 645T140 629Q116 629 99 645T83 685Q83 709 99 725T140 742ZM366 742Q389 742 406 725T423 685Q423 662 406 645T366 629Q342 629 325 645T309 685Q309 709 325 725T366 742Z" unicode="ÿ"/>
			<glyph d="M182 562V0H77V536Z" horiz-adv-x="260" unicode="ı"/>
			<glyph d="M86 717H198V465L341 578V475L198 361V88H508V0H86V276L5 213V317L86 380Z" horiz-adv-x="530" unicode="Ł"/>
			<glyph d="M183 772V492L255 572V463L183 384V0H78V276L6 197V306L78 385V746Z" horiz-adv-x="260" unicode="ł"/>
			<glyph d="M380 729Q445 729 497 707T585 641V717H984L956 631H688V416H928L901 330H688V87H998V0H585V93Q545 41 489 14T359 -12Q284 -12 226 14T130 87T71 198T51 338Q51 420 72 491T134 615T237 698T380 729ZM378 645Q321 645 281 620T216 555T180 462T169 353Q169 219 218 145T367 72Q424 72 463 94T528 156T564 249T576 362Q576 416 567 467T535 557T474 621T378 645Z" horiz-adv-x="1026" unicode="Œ"/>
			<glyph d="M291 562Q352 562 401 533T481 448Q511 502 557 532T662 562Q750 562 802 499T855 319V260H530V245Q530 164 566 117T676 71Q707 71 740 81T805 112L841 38Q807 17 761 2T664 -12Q595 -12 547 18T472 100Q441 45 394 16T288 -12Q237 -12 193 5T116 57T66 144T48 266Q48 335 66 389T116 482T192 541T291 562ZM655 485Q627 485 605 472T568 439T544 390T533 334H754V344Q754 414 727 449T655 485ZM289 479Q256 479 231 463T190 421T166 356T158 274Q158 230 166 193T190 129T231 86T288 71Q321 71 346 86T387 128T412 192T420 274Q420 318 412 355T387 420T346 463T289 479Z" horiz-adv-x="903" unicode="œ"/>
			<glyph d="M302 729Q355 729 400 720T487 696L455 605Q419 620 377 630T294 640Q253 640 226 632T185 611T164 582T159 551Q159 533 164 517T186 487T231 456T308 419T394 378T459 333T499 275T513 198Q513 151 497 112T450 46T370 3T255 -12Q198 -12 140 -2T38 26L69 116Q108 99 160 88T261 77Q327 77 365 104T404 185Q404 208 396 225T370 259T321 290T245 326Q201 344 165 363T105 407T67 465T54 544Q54 576 65 609T105 668T181 712T302 729ZM85 894H173L278 810L384 894H471L328 755H229Z" horiz-adv-x="556" unicode="Š"/>
			<glyph d="M244 562Q292 562 332 553T406 528L376 448Q345 465 311 474T243 483Q197 483 177 464T157 417Q157 401 162 390T181 369T215 349T266 326Q300 311 328 296T377 261T409 215T421 150Q421 107 406 76T366 26T304 -2T225 -12Q179 -12 138 -4T51 21L78 101Q113 86 149 77T222 68Q321 68 321 144Q321 165 313 180T290 206T255 227T211 248Q168 266 139 283T92 320T67 361T60 414Q60 481 105 521T244 562ZM41 766H129L234 682L340 766H427L284 627H185Z" horiz-adv-x="468" unicode="š"/>
			<glyph d="M21 717H146L306 413L478 717H593L354 312V0H242V311ZM192 870Q215 870 232 853T249 813Q249 790 232 773T192 757Q168 757 151 773T135 813Q135 837 151 853T192 870ZM418 870Q441 870 458 853T475 813Q475 790 458 773T418 757Q394 757 377 773T361 813Q361 837 377 853T418 870Z" horiz-adv-x="611" unicode="Ÿ"/>
			<glyph d="M79 717H561V670L194 87H566L539 0H51V68L404 631H51ZM111 894H199L304 810L410 894H497L354 755H255Z" horiz-adv-x="608" unicode="Ž"/>
			<glyph d="M50 550H406V494L148 85H420L393 0H23V74L269 467H24ZM24 766H112L217 682L323 766H410L267 627H168Z" horiz-adv-x="434" unicode="ž"/>
			<glyph d="M445 772Q477 772 502 768T550 756L517 676Q500 683 484 686T451 690Q406 690 382 662T349 563L326 404H450L424 325H314L270 8Q255 -100 205 -154T61 -209Q29 -209 5 -204T-39 -192L-7 -115Q10 -121 25 -124T57 -127Q107 -127 130 -97T163 1L209 325H101L128 404H221L242 556Q257 664 306 718T445 772Z" horiz-adv-x="584" unicode="ƒ"/>
			<glyph d="M174 766H272L415 627H329L222 711L117 627H30Z" horiz-adv-x="445" unicode="ˆ"/>
			<glyph d="M30 766H118L223 682L329 766H416L273 627H174Z" horiz-adv-x="446" unicode="ˇ"/>
			<glyph d="M30 765H102Q104 757 113 744T137 720T171 701T215 693Q238 693 258 701T292 720T316 744T327 765H399Q379 697 336 662T214 627Q134 627 92 662T30 765Z" horiz-adv-x="429" unicode="˘"/>
			<glyph d="M94 750Q121 750 139 731T158 685Q158 658 139 639T94 621Q67 621 48 639T30 685Q30 712 48 731T94 750Z" horiz-adv-x="188" unicode="˙"/>
			<glyph d="M162 873Q187 873 209 863T249 836T275 797T285 750Q285 725 275 702T249 663T209 637T162 628Q137 628 114 637T75 663T49 702T40 750Q40 775 49 797T75 836T114 863T162 873ZM162 812Q136 812 118 794T100 750Q100 724 118 705T162 687Q188 687 206 705T225 750Q225 776 206 794T162 812Z" horiz-adv-x="324" unicode="˚"/>
			<glyph d="M63 11H136Q117 -15 109 -40T101 -84Q101 -117 117 -132T163 -147Q169 -147 191 -144T250 -122V-190Q227 -202 196 -210T140 -219Q93 -219 61 -191T30 -111Q30 -98 32 -82T38 -49T49 -17T63 11Z" horiz-adv-x="280" unicode="˛"/>
			<glyph d="M314 750H381Q381 713 372 689T349 652T318 632T287 627Q263 627 243 634T200 656Q185 666 169 675T137 684Q117 684 107 669T98 627H30Q30 662 39 685T62 723T93 743T125 749Q151 749 170 741T209 721Q223 713 241 703T273 693Q313 693 314 750Z" horiz-adv-x="411" unicode="˜"/>
			<glyph d="M125 766H271L107 627H30ZM339 766H485L321 627H244Z" horiz-adv-x="515" unicode="˝"/>
			<glyph d="M190 550H644V469H549V147Q549 112 561 93T600 75Q614 75 630 82L649 11Q634 3 612 -2T569 -7Q534 -7 509 4T468 34T445 80T438 139V469H268V140Q268 93 264 59T253 0H141Q158 65 158 145V469Q138 468 112 461T68 445L38 516Q63 531 104 540T190 550Z" horiz-adv-x="690" unicode="π"/>
			<glyph d="M-1 314H511V237H-1Z" horiz-adv-x="510" unicode="–"/>
			<glyph d="M-2 314H1010V237H-2Z" horiz-adv-x="1010" unicode="—"/>
			<glyph d="M155 772L199 733Q171 707 156 683T138 640Q165 636 181 618T197 575Q197 547 178 527T130 507Q98 507 79 529T60 589Q60 640 81 682T155 772Z" horiz-adv-x="258" unicode="‘"/>
			<glyph d="M127 770Q160 770 178 748T197 688Q197 637 176 594T102 506L58 544Q86 570 101 594T120 638Q92 641 76 658T60 702Q60 731 79 750T127 770Z" horiz-adv-x="258" unicode="’"/>
			<glyph d="M127 116Q160 116 178 93T197 34Q197 -18 176 -60T102 -149L58 -110Q86 -85 101 -60T120 -17Q92 -13 76 4T60 47Q60 76 79 96T127 116Z" horiz-adv-x="258" unicode="‚"/>
			<glyph d="M155 772L199 733Q171 707 156 683T138 640Q165 636 181 618T197 575Q197 547 178 527T130 507Q98 507 79 529T60 589Q60 640 81 682T155 772ZM354 772L398 733Q370 707 355 683T337 640Q364 636 380 618T396 575Q396 547 377 527T329 507Q297 507 278 529T259 589Q259 640 280 682T354 772Z" horiz-adv-x="456" unicode="“"/>
			<glyph d="M127 770Q160 770 178 748T197 688Q197 637 176 594T102 506L58 544Q86 570 101 594T120 638Q92 641 76 658T60 702Q60 731 79 750T127 770ZM326 770Q359 770 377 748T396 688Q396 637 375 594T301 506L257 544Q285 570 300 594T319 638Q291 641 275 658T259 702Q259 731 278 750T326 770Z" horiz-adv-x="456" unicode="”"/>
			<glyph d="M127 115Q160 115 178 93T197 34Q197 -18 176 -60T102 -149L58 -110Q86 -85 101 -61T120 -17Q92 -13 76 4T60 47Q60 76 79 95T127 115ZM326 115Q359 115 377 93T396 34Q396 -18 375 -60T301 -149L257 -110Q285 -85 300 -61T319 -17Q291 -13 275 4T259 47Q259 76 278 95T326 115Z" horiz-adv-x="456" unicode="„"/>
			<glyph d="M233 717H332V507H507V409H332V-138H233V409H58V507H233Z" horiz-adv-x="564" unicode="†"/>
			<glyph d="M234 717H333V522H507V427H333V154H507V58H333V-138H234V58H58V154H234V427H58V522H234Z" horiz-adv-x="564" unicode="‡"/>
			<glyph d="M180 486Q207 486 231 476T272 448T300 406T311 356Q311 329 300 305T272 263T231 235T180 225Q151 225 127 236T86 265T59 306T50 354Q50 384 61 408T90 450T132 476T180 486Z" horiz-adv-x="360" unicode="•"/>
			<glyph d="M160 117Q188 117 208 97T229 49Q229 21 208 1T160 -19Q132 -19 112 1T92 49Q92 77 112 97T160 117ZM494 117Q522 117 542 97T563 49Q563 21 542 1T494 -19Q466 -19 446 1T426 49Q426 77 446 97T494 117ZM828 117Q856 117 876 97T897 49Q897 21 876 1T828 -19Q800 -19 780 1T760 49Q760 77 780 97T828 117Z" horiz-adv-x="990" unicode="…"/>
			<glyph d="M221 729Q258 729 290 716T345 677T381 615T395 531Q395 483 381 446T345 383T290 345T221 332Q183 332 151 344T96 381T59 442T46 527Q46 575 59 612T96 676T152 715T221 729ZM617 729H701L293 -12H208ZM221 660Q176 660 154 623T133 531Q133 504 138 480T154 439T181 412T221 402Q265 402 287 438T309 527Q309 555 303 579T287 622T259 650T221 660ZM689 385Q726 385 758 372T813 333T849 271T863 187Q863 139 849 102T813 39T758 1T689 -12Q651 -12 619 0T564 37T527 98T514 183Q514 231 527 268T564 332T620 371T689 385ZM1104 385Q1141 385 1173 372T1228 333T1264 271T1278 187Q1278 139 1264 102T1228 39T1173 1T1104 -12Q1066 -12 1034 0T979 37T942 98T929 183Q929 231 942 268T979 332T1035 371T1104 385ZM689 316Q644 316 622 280T601 187Q601 160 606 136T622 95T649 68T689 58Q734 58 755 93T777 184Q777 212 771 236T755 278T727 306T689 316ZM1104 316Q1059 316 1037 280T1016 187Q1016 160 1021 136T1037 95T1064 68T1104 58Q1149 58 1170 93T1192 184Q1192 212 1186 236T1170 278T1142 306T1104 316Z" horiz-adv-x="1324" unicode="‰"/>
			<glyph d="M295 550H413L153 276L413 0H294L35 276Z" horiz-adv-x="431" unicode="‹"/>
			<glyph d="M16 550H134L394 276L134 0H16L275 276Z" horiz-adv-x="431" unicode="›"/>
			<glyph d="M194 729H279L-131 -12H-215Z" horiz-adv-x="99" unicode="⁄"/>
			<glyph d="M385 729Q439 729 478 720T557 695L524 609Q488 626 454 633T388 640Q317 640 270 599T207 471H472L449 396H196Q195 386 194 375T194 353V325H428L405 251H203Q217 161 261 119T371 77Q416 77 451 89T525 127L568 50Q542 33 519 21T471 1T420 -9T360 -12Q241 -12 172 57T87 251H16L41 325H80Q79 331 79 338Q79 345 79 350Q79 361 79 373T81 396H16L41 471H91Q117 593 192 661T385 729Z" horiz-adv-x="583" unicode="€"/>
			<glyph d="M478 725L591 439L702 707L779 725L815 320H745L720 588L610 325L566 315L459 586L435 320H372L406 708ZM36 717H361L342 659H226V320H151V659H16Z" horiz-adv-x="879" unicode="™"/>
			<glyph d="M367 727Q443 727 501 702T598 635T657 533T677 407Q677 349 664 300T630 212T581 141T524 87H677V0H423V92Q447 113 472 141T517 206T551 290T565 397Q565 449 552 493T513 569T450 619T365 637Q319 637 281 619T217 570T175 493T161 394Q161 335 174 288T207 205T253 141T302 92V0H48V87H200Q175 107 148 135T99 201T62 290T48 404Q48 474 71 533T137 635T237 702T367 727Z" horiz-adv-x="737" unicode="Ω"/>
			<glyph d="M326 741Q378 741 420 723T493 671T539 587T555 475Q555 428 549 380T531 284Q515 225 489 172T427 78T345 13T244 -11Q200 -11 163 4T101 45T60 109T46 191Q46 267 69 325T130 422T214 482T306 502Q356 502 390 482T438 436H440Q442 450 443 464T444 496Q444 574 408 615T308 657Q283 657 257 650T210 630L185 704Q208 718 245 729T326 741ZM324 425Q291 425 261 406T207 355T170 279T157 185Q157 135 180 104T246 74Q279 74 308 95T360 154T400 240T426 344Q415 379 390 402T324 425Z" horiz-adv-x="596" unicode="∂"/>
			<glyph d="M267 718H412L635 52V0H41V52ZM326 629Q324 618 320 601T311 568L155 88H501L346 566Q339 587 335 602T330 629Z" horiz-adv-x="666" unicode="∆"/>
			<glyph d="M92 717H657V-230H544V630H205V-230H92Z" horiz-adv-x="750" unicode="∏"/>
			<glyph d="M47 717H581V630H194L458 265L175 -120H602V-213H28V-151L331 256L47 649Z" horiz-adv-x="658" unicode="∑"/>
			<glyph d="M39 416H467V333H39Z" unicode="−"/>
			<glyph d="M463 729H545Q497 543 450 358T355 -12H261Q228 66 196 145T132 302Q117 293 103 284T75 267Q66 282 57 297T39 327L182 420Q213 343 244 266T308 113Q347 268 386 421T463 729Z" horiz-adv-x="546" unicode="√"/>
			<glyph d="M219 489Q281 489 327 457T402 381H404Q416 399 433 418T474 452T525 478T586 489Q625 489 657 476T714 440T751 385T765 316Q765 278 752 245T715 188T660 150T590 137Q533 137 485 166T405 244H403Q371 199 324 168T221 137Q185 137 152 149T95 183T57 238T43 313Q43 353 57 386T95 441T151 476T219 489ZM228 407Q183 407 159 379T136 313Q136 272 161 245T228 218Q268 218 301 247T359 314Q333 354 299 380T228 407ZM581 406Q539 406 507 381T449 314Q475 269 508 244T581 219Q604 219 621 227T650 248T667 279T673 315Q673 351 651 378T581 406Z" horiz-adv-x="818" unicode="∞"/>
			<glyph d="M364 761Q389 761 413 756T449 745L426 660Q418 664 406 667T381 670Q346 670 327 647T308 580V-29Q308 -72 297 -107T264 -168T210 -208T132 -222Q111 -222 86 -218T47 -208L69 -122Q78 -125 89 -127T114 -130Q187 -130 187 -41V567Q187 654 230 707T364 761Z" horiz-adv-x="513" unicode="∫"/>
			<glyph d="M410 544L462 484Q439 447 410 424T343 402Q317 402 293 410T247 432Q226 445 208 453T170 461Q150 461 131 445T97 401L45 460Q68 497 96 520T166 543Q192 543 213 535T260 513Q282 499 299 491T337 484Q357 484 375 499T410 544ZM410 351L462 291Q439 254 410 231T343 208Q317 208 293 216T247 239Q226 251 208 259T170 267Q129 267 97 207L45 268Q68 304 96 327T166 350Q192 350 213 342T260 320Q282 306 299 298T337 291Q378 291 410 351Z" unicode="≈"/>
			<glyph d="M320 594H409L359 471H439V389H326L268 247H439V166H236L190 53H103L148 166H68V247H181L239 389H68V471H271Z" unicode="≠"/>
			<glyph d="M439 584V496L168 372V370L439 245V160L68 336V407ZM68 82H439V0H68Z" unicode="≤"/>
			<glyph d="M68 585L439 407V337L68 160V247L338 372V374L68 498ZM68 82H438V0H68Z" unicode="≥"/>
			<glyph d="M252 711H309L516 356L309 0H252L46 355ZM282 608L136 356L281 103L427 356Z" horiz-adv-x="588" unicode="◊"/>
			<glyph d="M329 772Q374 772 412 766T486 748L458 664Q427 677 394 684T330 691Q273 691 244 663T216 567V550H457L505 563V0H400V470H216V0H111V470H12L36 550H111V564Q111 772 329 772Z" horiz-adv-x="583" unicode="ﬁ"/>
			<glyph d="M322 772Q354 772 382 767T437 753L512 772V0H407V675Q389 682 367 686T330 690Q302 690 281 683T245 661T223 618T216 551V550H345L320 470H216V0H111V470H12L36 550H111V564Q111 667 162 719T322 772Z" horiz-adv-x="590" unicode="ﬂ"/>
		</font>
</defs>
</svg>
