<svg xmlns:dc="http://purl.org/dc/elements/1.1/" xmlns:cc="http://creativecommons.org/ns#" xmlns:rdf="http://www.w3.org/1999/02/22-rdf-syntax-ns#" xmlns:svg="http://www.w3.org/2000/svg" xmlns="http://www.w3.org/2000/svg" xmlns:sodipodi="http://sodipodi.sourceforge.net/DTD/sodipodi-0.dtd" xmlns:inkscape="http://www.inkscape.org/namespaces/inkscape" version="1.1" x="0px" y="0px" viewBox="0 0 100 125">
    <g transform="translate(0,-952.36218)">
    <path d="m 14.000002,968.36217 c -3.3137,0 -6,2.68619 -6,6 0,3.31359 2.6863,6 6,6 l 71.999996,0 c 3.3137,0 6,-2.68641 6,-6 0,-3.31381 -2.6863,-6 -6,-6 z m 0,28.00003 c -3.3137,0 -6,2.6862 -6,6 0,3.3136 2.6863,6 6,6 l 71.999996,0 c 3.3137,0 6,-2.6864 6,-6 0,-3.3138 -2.6863,-6 -6,-6 z m 0,28 c -3.3137,0 -6,2.6862 -6,6 0,3.3136 2.6863,6 6,6 l 71.999996,0 c 3.3137,0 6,-2.6864 6,-6 0,-3.3138 -2.6863,-6 -6,-6 z" style="text-indent:0;text-transform:none;direction:ltr;block-progression:tb;baseline-shift:baseline;enable-background:accumulate;" fill="currentColor" fill-opacity="1" stroke="none" marker="none" visibility="visible" display="inline" overflow="visible"/></g>
</svg>