<svg xmlns="http://www.w3.org/2000/svg" data-name="Layer 1" viewBox="0 0 1024 1280" x="0px" y="0px"><title>icon-01</title><path fill="#000000" d="M733.835636 289.512727a34.909091 34.909091 0 0 0-49.384727 0l-172.8 172.8-172.8-172.8a34.909091 34.909091 0 1 0-49.338182 49.338182l172.8 172.8-172.8 172.8a34.909091 34.909091 0 1 0 49.338182 49.384727l172.8-172.8 172.8 172.8c6.818909 6.818909 15.755636 10.216727 24.669091 10.216728a34.909091 34.909091 0 0 0 24.692364-59.578182l-172.776728-172.8 172.8-172.823273a34.909091 34.909091 0 0 0 0-49.338182"/></svg>