<svg xmlns="http://www.w3.org/2000/svg" xmlns:xlink="http://www.w3.org/1999/xlink" version="1.1" x="0px" y="0px" viewBox="0 0 100 125" style="enable-background:new 0 0 100 100;" xml:space="preserve">
<style type="text/css">
	.st0{fill:currentColor;}
</style><g><g>
<path d="M68.8,92.3H31.2c-6.1,0-11-5-11-11V22.1h4.2v59.1c0,3.8,3.1,6.9,6.9,6.9h37.6c3.7,0,6.7-2.9,6.8-6.6V22.1h4.2v59.6    C79.6,87.7,74.7,92.3,68.8,92.3L68.8,92.3z"/>
<path d="M87.6,24.2H12.4c-1.2,0-2.1-0.9-2.1-2.1s0.9-2.1,2.1-2.1h75.2c1.2,0,2.1,0.9,2.1,2.1S88.7,24.2,87.6,24.2z"/>
<path d="M35.9,75.8c-1.2,0-2.1-0.9-2.1-2.1V40c0-1.2,0.9-2.1,2.1-2.1S38,38.8,38,40v33.7C38,74.8,37.1,75.8,35.9,75.8z"/>
<path d="M50,75.8c-1.2,0-2.1-0.9-2.1-2.1V40c0-1.2,0.9-2.1,2.1-2.1s2.1,0.9,2.1,2.1v33.7C52.1,74.8,51.2,75.8,50,75.8z"/>
<path d="M64.1,75.8c-1.2,0-2.1-0.9-2.1-2.1V40c0-1.2,0.9-2.1,2.1-2.1s2.1,0.9,2.1,2.1v33.7C66.2,74.8,65.2,75.8,64.1,75.8z"/>
<path d="M70.1,22.1H66v-4.2c0-3.8-3.1-6.9-6.9-6.9H40.9c-3.7,0-6.7,2.9-6.8,6.6v4.5h-4.2v-4.7c0.2-5.9,5-10.5,11-10.5h18.2    c6.1,0,11,5,11,11L70.1,22.1L70.1,22.1L70.1,22.1z"/></g>
<rect y="-0.4" class="st0" width="100" height="100"/></g>
</svg>